<svg id="Layer_1" data-name="Layer 1" xmlns="http://www.w3.org/2000/svg" viewBox="0 0 24.49 20.38"><defs><style>.cls-1{fill:#fff;}</style></defs><title>arrow-left</title><g id="right-arrow"><g id="Group_650" data-name="Group 650"><path id="Path_38887" data-name="Path 38887" class="cls-1" d="M.39,11.14,9.23,20a1.34,1.34,0,0,0,1.9,0l.8-.8a1.33,1.33,0,0,0,.39-.95,1.36,1.36,0,0,0-.39-1L6.77,12.1H23.16a1.31,1.31,0,0,0,1.32-1.29s0,0,0,0V9.65a1.36,1.36,0,0,0-1.32-1.38H6.72l5.22-5.2a1.33,1.33,0,0,0,0-1.88h0l-.8-.8a1.34,1.34,0,0,0-1.9,0L.39,9.23a1.35,1.35,0,0,0,0,1.9Z" transform="translate(0 0.01)"/></g></g></svg>