<svg id="remove" xmlns="http://www.w3.org/2000/svg" width="40" height="40" viewBox="0 0 40 40">
  <path id="Path_38947" data-name="Path 38947" d="M20,0A20,20,0,1,0,40,20,20.022,20.022,0,0,0,20,0Zm0,0" fill="#3965dd"/>
  <path id="Path_38948" data-name="Path 38948" d="M170.69,168.333a1.667,1.667,0,1,1-2.357,2.357l-5.008-5.009-5.008,5.009a1.667,1.667,0,1,1-2.357-2.357l5.009-5.008-5.009-5.008a1.667,1.667,0,1,1,2.357-2.357l5.008,5.009,5.008-5.009a1.667,1.667,0,1,1,2.357,2.357l-5.009,5.008Zm0,0" transform="translate(-143.325 -143.325)" fill="#fafafa"/>
</svg>
