<svg xmlns="http://www.w3.org/2000/svg" width="82" height="82" viewBox="0 0 82 82">
  <g id="Group_706" data-name="Group 706" transform="translate(-1053 -10255)">
    <g id="Path_38946" data-name="Path 38946" transform="translate(1053 10255)" fill="#fff">
      <path d="M 41 81.5 C 35.53231048583984 81.5 30.22844505310059 80.42925262451172 25.23572158813477 78.31751251220703 C 20.41307830810547 76.27770233154297 16.08178901672363 73.35743713378906 12.36217784881592 69.63782501220703 C 8.642566680908203 65.918212890625 5.722300052642822 61.58692169189453 3.682488918304443 56.76427841186523 C 1.570744395256042 51.77155685424805 0.5 46.46768951416016 0.5 41 C 0.5 35.53231048583984 1.570744395256042 30.22844505310059 3.682488918304443 25.23572158813477 C 5.722300052642822 20.41307830810547 8.642566680908203 16.08178901672363 12.36217784881592 12.36217784881592 C 16.08178901672363 8.642566680908203 20.41307830810547 5.722300052642822 25.23572158813477 3.682488918304443 C 30.22844505310059 1.570744395256042 35.53231048583984 0.5 41 0.5 C 46.46768951416016 0.5 51.77155685424805 1.570744395256042 56.76427841186523 3.682488918304443 C 61.58692169189453 5.722300052642822 65.918212890625 8.642566680908203 69.63782501220703 12.36217784881592 C 73.35743713378906 16.08178901672363 76.27770233154297 20.41307830810547 78.31751251220703 25.23572158813477 C 80.42925262451172 30.22844505310059 81.5 35.53231048583984 81.5 41 C 81.5 46.46768951416016 80.42925262451172 51.77155685424805 78.31751251220703 56.76427841186523 C 76.27770233154297 61.58692169189453 73.35743713378906 65.918212890625 69.63782501220703 69.63782501220703 C 65.918212890625 73.35743713378906 61.58692169189453 76.27770233154297 56.76427841186523 78.31751251220703 C 51.77155685424805 80.42925262451172 46.46768951416016 81.5 41 81.5 Z" stroke="none"/>
      <path d="M 41 1 C 35.59959030151367 1 30.36125564575195 2.057456970214844 25.43050003051758 4.142990112304688 C 20.66744613647461 6.157585144042969 16.38957977294922 9.041877746582031 12.71572113037109 12.71572113037109 C 9.041877746582031 16.38957977294922 6.157585144042969 20.66744613647461 4.142990112304688 25.43050003051758 C 2.057456970214844 30.36125564575195 1 35.59959030151367 1 41 C 1 46.40040969848633 2.057456970214844 51.63874435424805 4.142990112304688 56.56949996948242 C 6.157585144042969 61.33255767822266 9.041877746582031 65.61042022705078 12.71572113037109 69.28427886962891 C 16.38957977294922 72.95812225341797 20.66744613647461 75.8424072265625 25.43050003051758 77.85700988769531 C 30.36125564575195 79.94254302978516 35.59959030151367 81 41 81 C 46.40040969848633 81 51.63874435424805 79.94254302978516 56.56949996948242 77.85700988769531 C 61.33255767822266 75.8424072265625 65.61042022705078 72.95812225341797 69.28427886962891 69.28427886962891 C 72.95812225341797 65.61042022705078 75.8424072265625 61.33255767822266 77.85700988769531 56.56949996948242 C 79.94254302978516 51.63874435424805 81 46.40040969848633 81 41 C 81 35.59959030151367 79.94254302978516 30.36125564575195 77.85700988769531 25.43050003051758 C 75.8424072265625 20.66744613647461 72.95812225341797 16.38957977294922 69.28427886962891 12.71572113037109 C 65.61042022705078 9.041877746582031 61.33255767822266 6.157585144042969 56.56949996948242 4.142990112304688 C 51.63874435424805 2.057456970214844 46.40040969848633 1 41 1 M 41 0 C 63.6436767578125 0 82 18.3563232421875 82 41 C 82 63.6436767578125 63.6436767578125 82 41 82 C 18.3563232421875 82 0 63.6436767578125 0 41 C 0 18.3563232421875 18.3563232421875 0 41 0 Z" stroke="none" fill="#00183e"/>
    </g>
    <g id="Group_691" data-name="Group 691" transform="translate(0 46)">
      <g id="Group_688" data-name="Group 688" transform="translate(986.374 10156.082)">
        <path id="Path_38922" data-name="Path 38922" d="M187.3,160.495a8.193,8.193,0,1,0-15.273,4.856c.466.818,1.079,1.542,1.539,2.365a6.7,6.7,0,0,1,.581,1.338,5.754,5.754,0,0,1,.208,1.544q.009.369.018.738a1.267,1.267,0,0,0,.151.6,1.2,1.2,0,0,0,1.032.6c1.036.014,2.073,0,3.11,0h2.52c.535,0,1.077.024,1.612,0a1.192,1.192,0,0,0,.993-.64,1.382,1.382,0,0,0,.133-.621q.009-.36.017-.721a5.6,5.6,0,0,1,.226-1.569A9.3,9.3,0,0,1,185.5,166.5c.271-.389.549-.772.782-1.185a8.189,8.189,0,0,0,1.016-4.825Zm-1.5,2.8a6.924,6.924,0,0,1-.636,1.477c-.245.425-.544.817-.821,1.222a10.542,10.542,0,0,0-1.275,2.355,6.205,6.205,0,0,0-.339,1.449c-.029.276-.032.552-.038.829l-.008.356q0,.076,0,.153c0,.027.013.153,0,.169s-.117,0-.137,0H179.6q-1.776,0-3.552,0h-.314a.344.344,0,0,1-.085,0c-.041-.012-.014.02-.031-.027a.524.524,0,0,1,0-.142l0-.184q0-.19-.009-.38c-.006-.27-.011-.54-.041-.809a7.166,7.166,0,0,0-.955-2.735c-.211-.37-.445-.727-.687-1.079-.275-.4-.568-.787-.808-1.209a6.917,6.917,0,0,1-.9-3.094,6.939,6.939,0,0,1,5.934-7.222,7.137,7.137,0,0,1,1.006-.073,6.95,6.95,0,0,1,6.658,8.944Z" transform="translate(-71.112 -68.291)" fill="#231f20"/>
        <path id="Path_38923" data-name="Path 38923" d="M223.032,386.4h-6.247c-.444,0-.46.308-.11.621L218.1,388.3a6.319,6.319,0,0,0,1.823.243,5.41,5.41,0,0,0,1.787-.243l1.429-1.279C223.492,386.708,223.476,386.4,223.032,386.4Z" transform="translate(-111.872 -277.414)" fill="#231f20"/>
        <path id="Path_38924" data-name="Path 38924" d="M196.454,173.863a6.125,6.125,0,0,0-4.709,2.309,7.165,7.165,0,0,0-1.239,2.212.622.622,0,0,0,1.189.364,5.288,5.288,0,0,1,4.791-3.642.622.622,0,0,0-.032-1.243Z" transform="translate(-88.61 -86.9)" fill="#231f20"/>
        <path id="Path_38925" data-name="Path 38925" d="M215.418,346.119h-7.334a.754.754,0,1,0,0,1.509h7.334a.754.754,0,1,0,0-1.509Z" transform="translate(-103.715 -241.307)" fill="#231f20"/>
        <path id="Path_38926" data-name="Path 38926" d="M215.418,366.192h-7.334a.754.754,0,1,0,0,1.509h7.334a.754.754,0,1,0,0-1.509Z" transform="translate(-103.715 -259.3)" fill="#231f20"/>
        <g id="Group_687" data-name="Group 687" transform="translate(91.626 76.918)">
          <path id="Path_38927" data-name="Path 38927" d="M96.873,230.73q-.015-.295-.016-.593t.016-.593a0,0,0,0,0,0,0H92.25a.614.614,0,0,0-.623.58.6.6,0,0,0,.6.612H96.87A0,0,0,0,0,96.873,230.73Z" transform="translate(-91.626 -213.727)" fill="#231f20"/>
          <path id="Path_38928" data-name="Path 38928" d="M139.847,125.924a0,0,0,0,0,0,0,11.248,11.248,0,0,1,.838-.839,0,0,0,0,0,0,0l-3.286-3.286a.6.6,0,0,0-.854.011.614.614,0,0,0,.031.851Z" transform="translate(-131.755 -116.988)" fill="#231f20"/>
          <path id="Path_38929" data-name="Path 38929" d="M323,125.921a0,0,0,0,0,0,0l3.283-3.283a.6.6,0,1,0-.843-.843l-3.283,3.283a0,0,0,0,0,0,0A11.23,11.23,0,0,1,323,125.921Z" transform="translate(-298.273 -116.989)" fill="#231f20"/>
          <path id="Path_38930" data-name="Path 38930" d="M244.862,76.918a.6.6,0,0,0-.612.6v4.645a0,0,0,0,0,0,0q.3-.016.6-.016t.59.016a0,0,0,0,0,0,0V77.541A.614.614,0,0,0,244.862,76.918Z" transform="translate(-228.435 -76.918)" fill="#231f20"/>
          <path id="Path_38931" data-name="Path 38931" d="M139.794,307.424a0,0,0,0,0,0,0L136.5,310.71a.6.6,0,1,0,.843.842l3.286-3.286a0,0,0,0,0,0,0A11.251,11.251,0,0,1,139.794,307.424Z" transform="translate(-131.697 -283.538)" fill="#231f20"/>
          <path id="Path_38932" data-name="Path 38932" d="M362.416,229.541H357.8a0,0,0,0,0,0,0q.015.295.016.593t-.016.593a0,0,0,0,0,0,0h4.642a.6.6,0,0,0,.6-.612A.614.614,0,0,0,362.416,229.541Z" transform="translate(-330.219 -213.727)" fill="#231f20"/>
          <path id="Path_38933" data-name="Path 38933" d="M323,307.455a0,0,0,0,0,0,0,11.246,11.246,0,0,1-.839.838,0,0,0,0,0,0,0l3.283,3.283a.6.6,0,0,0,.843-.842Z" transform="translate(-298.273 -283.566)" fill="#231f20"/>
        </g>
      </g>
      <g id="Group_690" data-name="Group 690" transform="translate(986.374 10156.082)">
        <path id="Path_38922-2" data-name="Path 38922" d="M187.3,160.495a8.193,8.193,0,1,0-15.273,4.856c.466.818,1.079,1.542,1.539,2.365a6.7,6.7,0,0,1,.581,1.338,5.754,5.754,0,0,1,.208,1.544q.009.369.018.738a1.267,1.267,0,0,0,.151.6,1.2,1.2,0,0,0,1.032.6c1.036.014,2.073,0,3.11,0h2.52c.535,0,1.077.024,1.612,0a1.192,1.192,0,0,0,.993-.64,1.382,1.382,0,0,0,.133-.621q.009-.36.017-.721a5.6,5.6,0,0,1,.226-1.569A9.3,9.3,0,0,1,185.5,166.5c.271-.389.549-.772.782-1.185a8.189,8.189,0,0,0,1.016-4.825Zm-1.5,2.8a6.924,6.924,0,0,1-.636,1.477c-.245.425-.544.817-.821,1.222a10.542,10.542,0,0,0-1.275,2.355,6.205,6.205,0,0,0-.339,1.449c-.029.276-.032.552-.038.829l-.008.356q0,.076,0,.153c0,.027.013.153,0,.169s-.117,0-.137,0H179.6q-1.776,0-3.552,0h-.314a.344.344,0,0,1-.085,0c-.041-.012-.014.02-.031-.027a.524.524,0,0,1,0-.142l0-.184q0-.19-.009-.38c-.006-.27-.011-.54-.041-.809a7.166,7.166,0,0,0-.955-2.735c-.211-.37-.445-.727-.687-1.079-.275-.4-.568-.787-.808-1.209a6.917,6.917,0,0,1-.9-3.094,6.939,6.939,0,0,1,5.934-7.222,7.137,7.137,0,0,1,1.006-.073,6.95,6.95,0,0,1,6.658,8.944Z" transform="translate(-71.112 -68.291)" fill="#231f20"/>
        <path id="Path_38923-2" data-name="Path 38923" d="M223.032,386.4h-6.247c-.444,0-.46.308-.11.621L218.1,388.3a6.319,6.319,0,0,0,1.823.243,5.41,5.41,0,0,0,1.787-.243l1.429-1.279C223.492,386.708,223.476,386.4,223.032,386.4Z" transform="translate(-111.872 -277.414)" fill="#231f20"/>
        <path id="Path_38924-2" data-name="Path 38924" d="M196.454,173.863a6.125,6.125,0,0,0-4.709,2.309,7.165,7.165,0,0,0-1.239,2.212.622.622,0,0,0,1.189.364,5.288,5.288,0,0,1,4.791-3.642.622.622,0,0,0-.032-1.243Z" transform="translate(-88.61 -86.9)" fill="#231f20"/>
        <path id="Path_38925-2" data-name="Path 38925" d="M215.418,346.119h-7.334a.754.754,0,1,0,0,1.509h7.334a.754.754,0,1,0,0-1.509Z" transform="translate(-103.715 -241.307)" fill="#231f20"/>
        <path id="Path_38926-2" data-name="Path 38926" d="M215.418,366.192h-7.334a.754.754,0,1,0,0,1.509h7.334a.754.754,0,1,0,0-1.509Z" transform="translate(-103.715 -259.3)" fill="#231f20"/>
        <g id="Group_687-2" data-name="Group 687" transform="translate(91.626 76.918)">
          <path id="Path_38927-2" data-name="Path 38927" d="M96.873,230.73q-.015-.295-.016-.593t.016-.593a0,0,0,0,0,0,0H92.25a.614.614,0,0,0-.623.58.6.6,0,0,0,.6.612H96.87A0,0,0,0,0,96.873,230.73Z" transform="translate(-91.626 -213.727)" fill="#231f20"/>
          <path id="Path_38928-2" data-name="Path 38928" d="M139.847,125.924a0,0,0,0,0,0,0,11.248,11.248,0,0,1,.838-.839,0,0,0,0,0,0,0l-3.286-3.286a.6.6,0,0,0-.854.011.614.614,0,0,0,.031.851Z" transform="translate(-131.755 -116.988)" fill="#231f20"/>
          <path id="Path_38929-2" data-name="Path 38929" d="M323,125.921a0,0,0,0,0,0,0l3.283-3.283a.6.6,0,1,0-.843-.843l-3.283,3.283a0,0,0,0,0,0,0A11.23,11.23,0,0,1,323,125.921Z" transform="translate(-298.273 -116.989)" fill="#231f20"/>
          <path id="Path_38930-2" data-name="Path 38930" d="M244.862,76.918a.6.6,0,0,0-.612.6v4.645a0,0,0,0,0,0,0q.3-.016.6-.016t.59.016a0,0,0,0,0,0,0V77.541A.614.614,0,0,0,244.862,76.918Z" transform="translate(-228.435 -76.918)" fill="#231f20"/>
          <path id="Path_38931-2" data-name="Path 38931" d="M139.794,307.424a0,0,0,0,0,0,0L136.5,310.71a.6.6,0,1,0,.843.842l3.286-3.286a0,0,0,0,0,0,0A11.251,11.251,0,0,1,139.794,307.424Z" transform="translate(-131.697 -283.538)" fill="#231f20"/>
          <path id="Path_38932-2" data-name="Path 38932" d="M362.416,229.541H357.8a0,0,0,0,0,0,0q.015.295.016.593t-.016.593a0,0,0,0,0,0,0h4.642a.6.6,0,0,0,.6-.612A.614.614,0,0,0,362.416,229.541Z" transform="translate(-330.219 -213.727)" fill="#231f20"/>
          <path id="Path_38933-2" data-name="Path 38933" d="M323,307.455a0,0,0,0,0,0,0,11.246,11.246,0,0,1-.839.838,0,0,0,0,0,0,0l3.283,3.283a.6.6,0,0,0,.843-.842Z" transform="translate(-298.273 -283.566)" fill="#231f20"/>
        </g>
      </g>
    </g>
  </g>
</svg>
