<svg xmlns="http://www.w3.org/2000/svg" width="82" height="82" viewBox="0 0 82 82">
  <g id="Group_704" data-name="Group 704" transform="translate(-786 -10255)">
    <g id="Path_38944" data-name="Path 38944" transform="translate(786 10255)" fill="#fff">
      <path d="M 41 81.5 C 35.53231048583984 81.5 30.22844505310059 80.42925262451172 25.23572158813477 78.31751251220703 C 20.41307830810547 76.27770233154297 16.08178901672363 73.35743713378906 12.36217784881592 69.63782501220703 C 8.642566680908203 65.918212890625 5.722300052642822 61.58692169189453 3.682488918304443 56.76427841186523 C 1.570744395256042 51.77155685424805 0.5 46.46768951416016 0.5 41 C 0.5 35.53231048583984 1.570744395256042 30.22844505310059 3.682488918304443 25.23572158813477 C 5.722300052642822 20.41307830810547 8.642566680908203 16.08178901672363 12.36217784881592 12.36217784881592 C 16.08178901672363 8.642566680908203 20.41307830810547 5.722300052642822 25.23572158813477 3.682488918304443 C 30.22844505310059 1.570744395256042 35.53231048583984 0.5 41 0.5 C 46.46768951416016 0.5 51.77155685424805 1.570744395256042 56.76427841186523 3.682488918304443 C 61.58692169189453 5.722300052642822 65.918212890625 8.642566680908203 69.63782501220703 12.36217784881592 C 73.35743713378906 16.08178901672363 76.27770233154297 20.41307830810547 78.31751251220703 25.23572158813477 C 80.42925262451172 30.22844505310059 81.5 35.53231048583984 81.5 41 C 81.5 46.46768951416016 80.42925262451172 51.77155685424805 78.31751251220703 56.76427841186523 C 76.27770233154297 61.58692169189453 73.35743713378906 65.918212890625 69.63782501220703 69.63782501220703 C 65.918212890625 73.35743713378906 61.58692169189453 76.27770233154297 56.76427841186523 78.31751251220703 C 51.77155685424805 80.42925262451172 46.46768951416016 81.5 41 81.5 Z" stroke="none"/>
      <path d="M 41 1 C 35.59959030151367 1 30.36125564575195 2.057456970214844 25.43050003051758 4.142990112304688 C 20.66744613647461 6.157585144042969 16.38957977294922 9.041877746582031 12.71572113037109 12.71572113037109 C 9.041877746582031 16.38957977294922 6.157585144042969 20.66744613647461 4.142990112304688 25.43050003051758 C 2.057456970214844 30.36125564575195 1 35.59959030151367 1 41 C 1 46.40040969848633 2.057456970214844 51.63874435424805 4.142990112304688 56.56949996948242 C 6.157585144042969 61.33255767822266 9.041877746582031 65.61042022705078 12.71572113037109 69.28427886962891 C 16.38957977294922 72.95812225341797 20.66744613647461 75.8424072265625 25.43050003051758 77.85700988769531 C 30.36125564575195 79.94254302978516 35.59959030151367 81 41 81 C 46.40040969848633 81 51.63874435424805 79.94254302978516 56.56949996948242 77.85700988769531 C 61.33255767822266 75.8424072265625 65.61042022705078 72.95812225341797 69.28427886962891 69.28427886962891 C 72.95812225341797 65.61042022705078 75.8424072265625 61.33255767822266 77.85700988769531 56.56949996948242 C 79.94254302978516 51.63874435424805 81 46.40040969848633 81 41 C 81 35.59959030151367 79.94254302978516 30.36125564575195 77.85700988769531 25.43050003051758 C 75.8424072265625 20.66744613647461 72.95812225341797 16.38957977294922 69.28427886962891 12.71572113037109 C 65.61042022705078 9.041877746582031 61.33255767822266 6.157585144042969 56.56949996948242 4.142990112304688 C 51.63874435424805 2.057456970214844 46.40040969848633 1 41 1 M 41 0 C 63.6436767578125 0 82 18.3563232421875 82 41 C 82 63.6436767578125 63.6436767578125 82 41 82 C 18.3563232421875 82 0 63.6436767578125 0 41 C 0 18.3563232421875 18.3563232421875 0 41 0 Z" stroke="none" fill="#00183e"/>
    </g>
    <g id="Group_686" data-name="Group 686" transform="translate(74.33 9542.355)">
      <path id="Path_38917" data-name="Path 38917" d="M751.388,746.55l4.173-4.173a5.925,5.925,0,0,1,8.38,8.38l-5.457,5.457a5.932,5.932,0,0,1-8.38,0,.932.932,0,1,1,1.318-1.318,4.068,4.068,0,0,0,5.744,0l5.456-5.457a4.061,4.061,0,0,0-5.743-5.744l-4.173,4.173a.932.932,0,0,1-1.318-1.318Zm-8.988,8.988,5.136-5.136a5.933,5.933,0,0,1,8.38,0,.932.932,0,0,1-1.318,1.318,4.077,4.077,0,0,0-5.743,0l-5.136,5.136a4.062,4.062,0,0,0,5.744,5.744l3.531-3.531a.932.932,0,0,1,1.317,1.318l-3.531,3.531a5.925,5.925,0,0,1-8.38-8.379Z" fill="#fff"/>
      <path id="Path_38918" data-name="Path 38918" d="M933.261,747.536a.884.884,0,1,0,1.25,1.25l4.173-4.173a4.11,4.11,0,0,1,5.812,5.812l-5.456,5.457a4.116,4.116,0,0,1-5.813,0,.884.884,0,1,0-1.25,1.25,5.884,5.884,0,0,0,8.311,0l5.457-5.457a5.877,5.877,0,0,0-8.311-8.312Z" transform="translate(-181.839 -0.952)"/>
      <path id="Path_38919" data-name="Path 38919" d="M933.593,747.868l4.173-4.173a4.061,4.061,0,0,1,5.743,5.744l-5.456,5.457a4.068,4.068,0,0,1-5.744,0,.932.932,0,0,0-1.318,1.318,5.933,5.933,0,0,0,8.38,0l5.457-5.457a5.925,5.925,0,0,0-8.38-8.38l-4.173,4.173a.932.932,0,0,0,1.318,1.318Zm11.2-5.457a5.891,5.891,0,0,1,0,8.312l-5.457,5.457a5.884,5.884,0,0,1-8.311,0,.884.884,0,0,1,1.25-1.25,4.116,4.116,0,0,0,5.813,0l5.456-5.457a4.11,4.11,0,0,0-5.812-5.812l-4.173,4.173a.884.884,0,0,1-1.25-1.25l4.173-4.173A5.885,5.885,0,0,1,944.793,742.411Z" transform="translate(-180.888)"/>
      <path id="Path_38920" data-name="Path 38920" d="M741.67,919.134a5.877,5.877,0,0,0,10.027,4.155l3.531-3.531a.883.883,0,1,0-1.249-1.25l-3.531,3.531a4.11,4.11,0,0,1-5.812-5.812l5.136-5.136a4.125,4.125,0,0,1,5.812,0,.884.884,0,0,0,1.25-1.25,5.885,5.885,0,0,0-8.312,0l-5.136,5.137A5.836,5.836,0,0,0,741.67,919.134Z" transform="translate(-0.952 -159.405)"/>
      <path id="Path_38921" data-name="Path 38921" d="M746.589,924.1a5.882,5.882,0,0,0,4.19-1.73l3.531-3.531a.932.932,0,1,0-1.317-1.318l-3.531,3.531a4.062,4.062,0,0,1-5.744-5.744l5.136-5.136a4.077,4.077,0,0,1,5.743,0,.932.932,0,0,0,1.318-1.318,5.933,5.933,0,0,0-8.38,0l-5.136,5.136a5.92,5.92,0,0,0,4.19,10.109Zm5.136-16.93a5.859,5.859,0,0,1,4.155,1.718.884.884,0,0,1-1.25,1.25,4.125,4.125,0,0,0-5.812,0l-5.136,5.136a4.11,4.11,0,0,0,5.812,5.812l3.531-3.531a.884.884,0,0,1,1.249,1.25l-3.531,3.531a5.877,5.877,0,0,1-8.311-8.311l5.136-5.137A5.86,5.86,0,0,1,751.726,907.171Z" transform="translate(0 -158.454)"/>
    </g>
  </g>
</svg>
