<?xml version="1.0" encoding="utf-8"?>
<!-- Generator: Adobe Illustrator 24.1.1, SVG Export Plug-In . SVG Version: 6.00 Build 0)  -->
<svg version="1.1" id="Layer_1" xmlns="http://www.w3.org/2000/svg" xmlns:xlink="http://www.w3.org/1999/xlink" x="0px" y="0px"
	 viewBox="0 0 166.6 153.3" style="enable-background:new 0 0 166.6 153.3;" xml:space="preserve">
<style type="text/css">
	.st0{enable-background:new    ;}
	.st1{fill:#00183E;}
	.st2{font-family:'Heebo-Light';}
	.st3{font-size:20px;}
	.st4{fill:#231F20;}
	.st5{fill:#FF3D0A;}
</style>
<g id="Group_703" transform="translate(-877 -9852)">
	<g class="st0">
		<path class="st1" d="M898.5,9864.8c0-0.7-0.2-1.2-0.6-1.6s-0.9-0.6-1.6-0.6h-4v-1h4c0.7,0,1.3,0.1,1.9,0.4s0.9,0.6,1.2,1.2
			s0.4,1.1,0.4,1.8v8h-1.2V9864.8z"/>
		<path class="st1" d="M904.1,9862.6h-2.2v-1h3.4v6.3h-1.2V9862.6z"/>
		<path class="st1" d="M907.8,9872.6l0.2-0.9c1.1,0.3,2.1,0.5,2.9,0.5c1.1,0,2-0.3,2.6-0.9s0.9-1.4,0.9-2.5v-6.2h-6.4v-1h7.5v6.9
			c0,1-0.2,1.9-0.6,2.6s-0.9,1.2-1.6,1.6s-1.5,0.5-2.5,0.5C910.1,9873.1,909,9873,907.8,9872.6z"/>
		<path class="st1" d="M926.2,9865.9c0-0.8-0.1-1.4-0.3-1.9s-0.6-0.9-1.1-1.1s-1.1-0.3-1.9-0.3h-3.8v-1h3.9c1.5,0,2.6,0.4,3.4,1.1
			s1.1,1.8,1.1,3.3v7.1h-1.2V9865.9z M919.1,9869.1c0-0.5,0-1,0.1-1.3s0.2-0.7,0.3-1.1h1c-0.1,0.3-0.2,0.7-0.2,1s-0.1,0.8-0.1,1.4
			v3.9h-1.2V9869.1z"/>
		<path class="st1" d="M938.3,9862.3l-4.4,10.7h-1.3l4.3-10.4h-7v-4.6h1.2v3.6h7.1V9862.3z"/>
		<path class="st1" d="M945.7,9861.6h8.8v11.4h-8.8V9861.6z M953.3,9872v-9.4h-6.4v9.4H953.3z"/>
		<path class="st1" d="M959.1,9862.6h-2.2v-1h3.4v6.3h-1.2V9862.6z"/>
		<path class="st1" d="M971.3,9861.6v7c0,1-0.2,1.8-0.6,2.5c-0.4,0.7-1,1.2-1.7,1.6c-0.7,0.4-1.6,0.5-2.5,0.5
			c-1.2,0-2.5-0.3-3.8-0.8l0.3-0.9c1.2,0.5,2.2,0.7,3.2,0.7c-0.2-0.3-0.4-0.6-0.5-0.9c-0.1-0.3-0.3-0.7-0.4-1.1l-2-8.6h1.2l1.9,8.6
			c0.1,0.5,0.2,0.8,0.3,1.2c0.1,0.3,0.2,0.6,0.4,0.9c0.9-0.1,1.6-0.5,2.2-1.1c0.5-0.6,0.8-1.4,0.8-2.5v-7H971.3z"/>
		<path class="st1" d="M973.7,9873l0.1-1c0.4,0.1,0.9,0.1,1.4,0.1c0.6,0,1-0.2,1.3-0.5c0.3-0.3,0.4-0.8,0.4-1.5v-7.5h-2.5v-1h3.7
			v8.6c0,1-0.2,1.7-0.7,2.2c-0.5,0.5-1.1,0.7-2,0.7C974.8,9873.2,974.2,9873.1,973.7,9873z"/>
		<path class="st1" d="M987.1,9874.3c-0.2,0.6-0.6,1-1,1.4l-0.7-0.5c0.3-0.4,0.5-0.8,0.7-1.2s0.2-0.9,0.2-1.4v-1.4h1.2v1.4
			C987.4,9873.1,987.3,9873.7,987.1,9874.3z"/>
		<path class="st1" d="M990.4,9861.6h8.8v11.4h-8.8V9861.6z M998,9872v-9.4h-6.4v9.4H998z"/>
		<path class="st1" d="M1003.5,9862.6h-1.5v-1h2.7v11.4h-1.2V9862.6z"/>
		<path class="st1" d="M1015.7,9862.3l-4.4,10.7h-1.3l4.3-10.4h-7v-4.6h1.2v3.6h7.1V9862.3z"/>
		<path class="st1" d="M1019.5,9871.3c0.7,0.3,1.3,0.5,2.1,0.7s1.4,0.2,2.1,0.2c0.9,0,1.8-0.1,2.6-0.4c0.8-0.3,1.4-0.7,1.8-1.2
			s0.7-1.2,0.7-2v-6.9h1.2v7c0,1-0.3,1.9-0.8,2.5c-0.5,0.7-1.3,1.2-2.2,1.6c-0.9,0.3-2,0.5-3.1,0.5c-0.9,0-1.8-0.1-2.7-0.3
			c-0.9-0.2-1.8-0.5-2.6-0.9v-10.4h1.2V9871.3z M1023.5,9867.5v-5.9h1.2v5.8c0,0.7-0.1,1.2-0.2,1.7s-0.4,0.9-0.8,1.2l-1-0.1
			C1023.2,9869.6,1023.5,9868.8,1023.5,9867.5z"/>
	</g>
	<text transform="matrix(1 0 0 1 888.6072 9873)" class="st1 st2 st3">.</text>
	<g id="Group_679" transform="translate(339.831 9608.084)">
		<rect id="Rectangle_2" x="537.2" y="292.1" class="st4" width="19.2" height="74.5"/>
		<path id="Path_1" class="st5" d="M602.9,367.9c18.5,0,28.2-10.4,33-20l-16.5-7.8c-2.9,6.6-9.4,10.8-16.5,10.8
			c-11.6,0-20.2-9.4-20.2-21.5s8.6-21.5,20.2-21.5c7.2,0,13.6,4.3,16.5,10.8l16.5-7.8c-4.9-9.8-14.5-20-33-20
			c-22.3,0-39.7,15.5-39.7,38.5C563.1,352.3,580.6,367.9,602.9,367.9"/>
		<path id="Path_2" class="st4" d="M683.9,316.7c0,5.1-4.2,8.4-9.3,8.4h-15.2v-16.7h15.2C679.6,308.3,683.9,311.6,683.9,316.7
			 M681.8,366.6h22l-15.2-27.3c6.9-2.5,14.8-9.4,14.8-22.3c0-13.8-9.4-24.8-25.9-24.8h-37.3v74.5h19.2v-25.2h9.8L681.8,366.6z"/>
		<rect id="Rectangle_3" x="617.6" y="382.7" class="st4" width="0.9" height="13.6"/>
		<path id="Path_3" class="st4" d="M702.8,390h0.9v-5H701v0.8h1.8V390z M693.4,391.8l0.8,0.1c0.3-0.3,0.5-0.6,0.6-1
			c0.1-0.4,0.2-0.9,0.2-1.3V385h-0.9v4.7C694.2,390.5,694,391.2,693.4,391.8 M691,385h-0.9v8.2c0.7,0.3,1.4,0.6,2.1,0.7
			c0.7,0.2,1.4,0.2,2.1,0.2c0.8,0,1.7-0.1,2.4-0.4c0.7-0.2,1.3-0.7,1.7-1.2c0.4-0.6,0.7-1.3,0.6-2V385h-0.9v5.5
			c0,0.6-0.2,1.2-0.5,1.6c-0.4,0.5-0.9,0.8-1.4,1c-0.6,0.2-1.3,0.3-2,0.3c-0.6,0-1.1-0.1-1.6-0.2c-0.6-0.1-1.1-0.3-1.6-0.5V385z
			 M686.5,394h0.9v-6.4c0-0.5-0.1-1-0.3-1.4c-0.2-0.4-0.5-0.7-0.9-0.9c-0.5-0.2-1-0.3-1.5-0.3h-3.2v0.8h3.2c0.5,0,0.9,0.2,1.3,0.5
			c0.3,0.3,0.5,0.8,0.5,1.3L686.5,394z M680.2,385h-1.1l-2.5,4.2l-3.1-4.2h-1.1l1.9,2.6c-0.5,0.2-1,0.6-1.2,1.1
			c-0.3,0.6-0.4,1.2-0.4,1.9v3.4h0.9v-3.7c-0.1-0.9,0.3-1.8,1.1-2.2l4.3,5.9h1.1l-3-4L680.2,385z M670.5,385h-5.6v-2.9H664v3.6h5.5
			l-3.4,8.2h1l3.5-8.4L670.5,385z M651.5,397.2h0.9v-6.7c0-0.4,0-0.7,0-1.1c0-0.3,0.1-0.5,0.2-0.8h-0.8c-0.1,0.3-0.2,0.5-0.2,0.8
			c-0.1,0.3-0.1,0.7-0.1,1L651.5,397.2z M654.3,394c0.7,0,1.3-0.2,2-0.4c0.5-0.3,1-0.7,1.3-1.2c0.3-0.5,0.5-1.2,0.4-1.8V385h-6.6
			v0.8h5.7v4.9c0,0.5-0.1,0.9-0.3,1.3c-0.2,0.4-0.6,0.7-1,0.9c-0.4,0.2-0.9,0.3-1.4,0.4L654.3,394z M646.4,394.2
			c0.6,0,1.2-0.2,1.6-0.6c0.4-0.5,0.6-1.1,0.6-1.8V385h-2.9v0.8h2v6c0,0.4-0.1,0.9-0.3,1.2c-0.3,0.3-0.6,0.4-1,0.4
			c-0.4,0-0.8,0-1.1-0.1L645,394C645.5,394.1,645.9,394.2,646.4,394.2 M637.2,385v0.8h4.5v8.2h0.9v-8.2h1.5V385H637.2z M628.8,394
			h0.9V391c0-0.4,0-0.7,0-1.1c0-0.3,0.1-0.5,0.2-0.8h-0.8c-0.1,0.3-0.2,0.6-0.2,0.8c-0.1,0.3-0.1,0.7-0.1,1.1L628.8,394z M634.5,394
			h0.9v-5.6c0.1-0.9-0.2-1.9-0.9-2.6c-0.7-0.6-1.7-0.9-2.7-0.8h-3.1v0.8h3c0.5,0,1,0.1,1.5,0.3c0.4,0.2,0.7,0.5,0.8,0.9
			c0.2,0.5,0.3,1,0.3,1.5L634.5,394z M606.5,394h0.9v-6.4c0-0.5-0.1-1-0.3-1.4c-0.2-0.4-0.5-0.7-0.9-0.9c-0.5-0.2-1-0.3-1.5-0.3
			h-3.2v0.8h3.2c0.5,0,0.9,0.2,1.3,0.5c0.3,0.3,0.5,0.8,0.5,1.3L606.5,394z M600.2,385h-1.1l-2.5,4.2l-3.1-4.2h-1.1l1.9,2.6
			c-0.5,0.2-1,0.6-1.2,1.1c-0.3,0.6-0.4,1.2-0.4,1.9v3.4h0.9v-3.7c-0.1-0.9,0.3-1.8,1.1-2.2l4.3,5.9h1.1l-3-4L600.2,385z
			 M583.8,385.8h5.1v7.4h-5.1V385.8z M582.9,394h6.9v-9h-6.9V394z M569.2,394h0.9l0.8-6.1c0-0.4,0.2-0.8,0.4-1.2
			c0.2-0.3,0.4-0.6,0.7-0.8c0.3-0.2,0.6-0.3,1-0.3c0.7,0,1.4,0.2,1.9,0.7c0.5,0.6,0.7,1.3,0.6,2v4.8h-2.7v0.8h3.6v-5.5
			c0.1-1-0.3-2-0.9-2.7c-0.7-0.7-1.7-1-2.6-0.9c-0.7,0-1.3,0.1-1.9,0.2c-0.7,0.1-1.3,0.3-2,0.5l0.2,0.7c0.7-0.2,1.4-0.4,2.1-0.5l0,0
			c-0.1,0-0.1,0.1-0.2,0.1c-0.3,0.2-0.5,0.5-0.7,0.8c-0.2,0.4-0.3,0.8-0.4,1.2L569.2,394z M562.4,394.1c0.5,0,1-0.1,1.5-0.4
			c0.4-0.2,0.8-0.6,1.1-1c0.3-0.4,0.5-0.8,0.5-1.3h0.1l0.5,2.6h0.9l-0.6-3c-0.1-0.4-0.1-0.9-0.1-1.3V385h-3v0.8h2.1v4.7
			c-0.1,0.5-0.2,0.9-0.5,1.3c-0.2,0.4-0.6,0.7-1,1c-0.4,0.3-0.9,0.4-1.4,0.4c-0.1,0-0.2,0-0.3,0v0.9
			C562.2,394.1,562.3,394.1,562.4,394.1 M559.6,394h0.9v-9h-2.1v0.8h1.2V394z M555.4,394h0.9v-6.4c0-0.5-0.1-1-0.3-1.4
			c-0.2-0.4-0.5-0.7-0.9-0.9c-0.5-0.2-1-0.3-1.5-0.3h-3.2v0.8h3.2c0.5,0,0.9,0.2,1.3,0.5c0.3,0.3,0.5,0.8,0.5,1.3L555.4,394z
			 M547.8,390h0.9v-5H546v0.8h1.8L547.8,390z M538.1,385.8h5.1v7.4h-5.1V385.8z M537.2,394h6.9v-9h-6.9V394z"/>
	</g>
</g>
</svg>
