<svg xmlns="http://www.w3.org/2000/svg" width="166.589" height="106.333" viewBox="0 0 166.589 106.333">
  <g id="Group_666" data-name="Group 666" transform="translate(-537.169 -290.916)">
    <rect id="Rectangle_2" data-name="Rectangle 2" width="19.2" height="74.456" transform="translate(537.169 292.144)" fill="#fff"/>
    <path id="Path_1" data-name="Path 1" d="M622.393,367.94c18.53,0,28.242-10.381,33.042-19.981l-16.521-7.814a18.064,18.064,0,0,1-16.521,10.828c-11.609,0-20.2-9.377-20.2-21.544s8.6-21.545,20.2-21.545a18.065,18.065,0,0,1,16.521,10.828l16.521-7.815c-4.912-9.823-14.512-19.981-33.042-19.981-22.325,0-39.739,15.516-39.739,38.512,0,22.883,17.414,38.511,39.739,38.511" transform="translate(-19.505 0)" fill="#fff"/>
    <path id="Path_2" data-name="Path 2" d="M761.274,317.624c0,5.135-4.242,8.373-9.266,8.373H736.827V309.251h15.181c5.024,0,9.266,3.237,9.266,8.372m-2.121,49.9h21.991l-15.182-27.349c6.921-2.456,14.847-9.377,14.847-22.327,0-13.841-9.377-24.781-25.9-24.781H717.627v74.457h19.2V342.294h9.824Z" transform="translate(-77.385 -0.922)" fill="#fff"/>
    <rect id="Rectangle_3" data-name="Rectangle 3" width="0.916" height="13.606" transform="translate(617.555 382.689)" fill="#fff"/>
    <path id="Path_3" data-name="Path 3" d="M702.816,458.51h.942v-4.974h-2.711v.78h1.769Zm-9.377,1.784.8.078a2.513,2.513,0,0,0,.645-.958,3.836,3.836,0,0,0,.2-1.321v-4.557h-.928v4.68a2.615,2.615,0,0,1-.71,2.078m-2.418-6.758h-.911v8.233a9.851,9.851,0,0,0,2.085.719,9.736,9.736,0,0,0,2.139.247,6.958,6.958,0,0,0,2.449-.41,3.871,3.871,0,0,0,1.742-1.232,3.157,3.157,0,0,0,.645-2.012v-5.546h-.919v5.483a2.516,2.516,0,0,1-.522,1.615,3.134,3.134,0,0,1-1.421.985,5.87,5.87,0,0,1-2.02.328,7.67,7.67,0,0,1-1.641-.185,8.79,8.79,0,0,1-1.626-.526Zm-4.573,9.014h.942v-6.365a2.959,2.959,0,0,0-.324-1.425,2.157,2.157,0,0,0-.942-.912,3.218,3.218,0,0,0-1.467-.312H681.49v.78h3.2a1.73,1.73,0,0,1,1.282.483,1.759,1.759,0,0,1,.478,1.294Zm-6.241-9.014h-1.074l-2.5,4.194-3.113-4.194H672.46l1.939,2.61a2.582,2.582,0,0,0-1.232,1.12,3.865,3.865,0,0,0-.4,1.869v3.414h.919v-3.669a2.256,2.256,0,0,1,1.112-2.2l4.348,5.87H680.2l-2.982-4.024Zm-9.669,0h-5.647v-2.851h-.943v3.63h5.53l-3.429,8.234h1.028l3.461-8.435Zm-19.025,12.227h.92v-6.712a10.248,10.248,0,0,1,.046-1.074,4.215,4.215,0,0,1,.163-.8h-.8a5.481,5.481,0,0,0-.243.83,5.415,5.415,0,0,0-.081,1.039Zm2.781-3.213a4.611,4.611,0,0,0,1.953-.444,2.989,2.989,0,0,0,1.27-1.163,3.419,3.419,0,0,0,.444-1.776v-5.631h-6.634v.78h5.692v4.866a2.569,2.569,0,0,1-.34,1.333,2.377,2.377,0,0,1-.957.9,3.193,3.193,0,0,1-1.428.351Zm-7.918.155a2.108,2.108,0,0,0,1.618-.592,2.5,2.5,0,0,0,.552-1.764v-6.812H645.62v.78H647.6v5.962a1.821,1.821,0,0,1-.344,1.221,1.285,1.285,0,0,1-1.023.394,5.335,5.335,0,0,1-1.136-.1l-.054.764a5.822,5.822,0,0,0,1.329.147m-9.207-9.168v.78H641.7v8.234h.942v-8.234h1.476v-.78Zm-8.326,9.014h.919v-3.074a9.5,9.5,0,0,1,.05-1.074,5.064,5.064,0,0,1,.158-.811h-.8a5.557,5.557,0,0,0-.243.834,5.479,5.479,0,0,0-.081,1.051Zm5.639,0h.935v-5.578a3.451,3.451,0,0,0-.877-2.587,3.7,3.7,0,0,0-2.668-.849h-3.058v.78h3.035a3.6,3.6,0,0,1,1.518.271,1.707,1.707,0,0,1,.846.853,3.68,3.68,0,0,1,.271,1.532Zm-28,0h.943v-6.365a2.946,2.946,0,0,0-.325-1.425,2.157,2.157,0,0,0-.943-.912,3.217,3.217,0,0,0-1.468-.312h-3.167v.78h3.2a1.724,1.724,0,0,1,1.282.483,1.757,1.757,0,0,1,.479,1.294Zm-6.241-9.014H599.17l-2.5,4.194-3.113-4.194H592.5l1.939,2.61a2.583,2.583,0,0,0-1.232,1.12,3.872,3.872,0,0,0-.405,1.869v3.414h.919v-3.669a2.258,2.258,0,0,1,1.112-2.2l4.348,5.87h1.058l-2.981-4.024Zm-16.429.78h5.068v7.446h-5.068Zm-.942,8.234h6.944v-9.014h-6.944Zm-13.664,0h.935l.757-6.126a3.039,3.039,0,0,1,.359-1.162,2.091,2.091,0,0,1,.718-.769,1.819,1.819,0,0,1,.977-.271,2.387,2.387,0,0,1,1.853.692,2.927,2.927,0,0,1,.633,2.043v4.812h-2.657v.781h3.6v-5.507a3.755,3.755,0,0,0-.915-2.719,3.5,3.5,0,0,0-2.615-.927,11.573,11.573,0,0,0-1.947.186,12.136,12.136,0,0,0-1.954.494l.248.742a14.6,14.6,0,0,1,2.062-.541l.008.039a1.4,1.4,0,0,0-.21.109,2.334,2.334,0,0,0-.717.845,3.485,3.485,0,0,0-.386,1.209Zm-6.828.046a3.069,3.069,0,0,0,1.506-.383,3.335,3.335,0,0,0,1.135-1,2.851,2.851,0,0,0,.525-1.309h.062l.518,2.649h.919l-.648-2.982a6.36,6.36,0,0,1-.139-1.328v-4.7h-3v.78h2.078v4.665a3.411,3.411,0,0,1-.455,1.347,2.8,2.8,0,0,1-.985.977,2.991,2.991,0,0,1-1.448.4,1.745,1.745,0,0,1-.316-.023v.888a1.509,1.509,0,0,0,.254.023m-2.758-.046h.942v-9.014h-2.124v.78h1.182Zm-4.178,0h.942v-6.365a2.945,2.945,0,0,0-.325-1.425,2.155,2.155,0,0,0-.942-.912,3.218,3.218,0,0,0-1.468-.312h-3.167v.78h3.2a1.725,1.725,0,0,1,1.282.483,1.757,1.757,0,0,1,.479,1.294Zm-7.678-4.04h.942v-4.974H546v.78h1.769Zm-9.655-4.194h5.067v7.446h-5.067Zm-.943,8.234h6.944v-9.014h-6.944Z" transform="translate(0 -68.514)" fill="#fff"/>
  </g>
</svg>
