<svg id="Layer_1" data-name="Layer 1" xmlns="http://www.w3.org/2000/svg" viewBox="0 0 146.97 106"><defs><style>.cls-1{fill:#fff;}</style></defs><title>logo-bat-yam</title><g id="Group_2" data-name="Group 2"><path id="Path_4" data-name="Path 4" class="cls-1" d="M138.05,71.45a9.31,9.31,0,0,1-2.13,1.9,8.79,8.79,0,0,1-.93-4.24,25.64,25.64,0,0,1,.53-4q1-4.25,1.81-8.44T139,48.27a2.28,2.28,0,0,0-1.51-2.85h0a4.35,4.35,0,0,0-2.5-.07,11.71,11.71,0,0,0-2.84,1.09,13.34,13.34,0,0,0-2.68,1.88,8.08,8.08,0,0,0-1.9,2.46q-1,1.2-2.39,2.69l-2.83,3q-1.45,1.55-2.89,3T117,62.23l-2.25,1.9a38.39,38.39,0,0,1,.51-5.3q.44-2.61.75-5.17a35.53,35.53,0,0,0,.25-5.06,20.68,20.68,0,0,0-.73-5q-6.42-2.12-10.56,2.17L95.08,56.16l-2.65,3.11q.35-4.27.58-8t.57-7.56a9.13,9.13,0,0,0-.19-2.2,1.62,1.62,0,0,0-1.31-1.26l-4.8-1.1a6.92,6.92,0,0,0-4.85.73,8.63,8.63,0,0,0,0,1.1,2.69,2.69,0,0,1-.09,1q-.22,3.66-.61,6.89t-1.08,6.39q.23.37-.16,1.65a14.25,14.25,0,0,0-.4,1.39q0,1.1-.12,2.2t-.24,2.19a9.42,9.42,0,0,0,.53,5.45,8.2,8.2,0,0,0,4.13,3.35l2.29,1a1.34,1.34,0,0,0,1.22.15,2.09,2.09,0,0,0,.88-.89q.38-.66.77-1.45a6.87,6.87,0,0,1,1-1.5l2-2.15a15.45,15.45,0,0,0,1.77-2.27,44.42,44.42,0,0,1,3.61-5,32.36,32.36,0,0,0,3.49-5.1,34.17,34.17,0,0,1,2.23-3.42A11.64,11.64,0,0,1,107,47.57q-.15.85-.3,2.31t-.38,3q-.23,1.58-.38,2.92t-.17,1.95q-.18,2.07-.42,4.33a21.78,21.78,0,0,0-.05,4.34,5.05,5.05,0,0,0,.85,2.4,9.35,9.35,0,0,0,1.9,2.13,10.33,10.33,0,0,0,2.46,1.53,5.32,5.32,0,0,0,2.55.49,3.38,3.38,0,0,0,1-.4,4.2,4.2,0,0,0,.75-.53l5.65-5.84,1.77-2.46q1.52-2.1,3.3-4.62t3.36-4.68a25,25,0,0,1,2.21-2.75,12.58,12.58,0,0,1-1.07,3.39q-1,2.54-2.17,5.81a46.78,46.78,0,0,0-1.76,6.73,11.38,11.38,0,0,0,.39,6.18,20.79,20.79,0,0,0,3.49,2A11.54,11.54,0,0,0,133.94,77a9.7,9.7,0,0,0,4.11-.56,12.14,12.14,0,0,0,4.23-2.76q.65-1.45,1.29-2.59t1.22-2.35q.58-1.2,1.17-2.66a19.94,19.94,0,0,0,1-3.64,14.55,14.55,0,0,0-3.56,3q-1.58,1.79-3.35,4.19a11,11,0,0,0-2,1.9m-65.2-3.95a5.44,5.44,0,0,1,0-.8q.34-3.53,1-6.94a42.63,42.63,0,0,1,1.82-6.67q1.31-3.63.62-4.81t-4.6-1.52a2.42,2.42,0,0,0-.91-.09,2.34,2.34,0,0,1-.91-.09A3,3,0,0,0,66.35,48q-1.64,2-3.28,4.13T59.9,56.49q-1.78,2.64-3.32,5.41t-3.32,5.53a3.06,3.06,0,0,1-.76.9l-1.37,1.13.09-3.54a49.67,49.67,0,0,1,1-6.14,57.3,57.3,0,0,1,1.74-6q1.06-3,2.29-5.8a30.88,30.88,0,0,1,3-5.3,7.37,7.37,0,0,1,2-1.9q1-.58,6.57,1.15a7.05,7.05,0,0,0,2.26-.06q1.17-.21,2.76-.42L72,40a2.4,2.4,0,0,0-.65-.75,6.34,6.34,0,0,1-2.16-1.34q-.84-.82-7-1.71a27.39,27.39,0,0,0-4-.29,26.85,26.85,0,0,1-4-.29,3.79,3.79,0,0,0-3.71,1.74A21.63,21.63,0,0,0,49,39.6L47.7,42Q46,45.26,44.28,48.76A48.87,48.87,0,0,0,41,58a27.72,27.72,0,0,0-.54,4.38q-.13,2.44-.06,4.58t.21,3.67a8.9,8.9,0,0,0,.26,1.78,7.82,7.82,0,0,0,3.33,3.39,13.78,13.78,0,0,0,4.49,1.34,14.38,14.38,0,0,0,5.14-.23q2.09-.56,3.9-4.17.77-1.57,1.73-3.13t2.1-3.37q.68,2,1.13,3.51a16.25,16.25,0,0,0,1.15,2.9,6.65,6.65,0,0,0,2.25,2.87,7.58,7.58,0,0,0,3.08,1.3,6.22,6.22,0,0,0,3.31-.34,7.3,7.3,0,0,0,2.93-2.06q1-1.56,2.16-3.18t2.48-3.66q1.34-2,2.75-4.69t3.1-6.27a46.7,46.7,0,0,0-7.23,5.68A45.71,45.71,0,0,0,73,68.56c-.07-.41-.12-.76-.16-1" transform="translate(0 0)"/><path id="Path_5" data-name="Path 5" class="cls-1" d="M22.23,18.63l-.12-.24h.24ZM25.4,32.07l-.12-.12.37-.37.37.37a.7.7,0,0,1-.49.12Zm.73-5.13c0,.16,0,.26-.12.31s-.12.14-.12.31l-.36-.49L26,26.7ZM19.79,19a3.22,3.22,0,0,0,.73,1.71q-1.83.25-2.14-.12a6.18,6.18,0,0,1-.31-2.69q1.58.12,1.71,1.1M63,3.43a20.11,20.11,0,0,1-3.54-.67,4.18,4.18,0,0,0-3.24.06,9.23,9.23,0,0,0-2.5,2q-.86,1-1.65,2a14.18,14.18,0,0,0-1.4,2.08,48.32,48.32,0,0,1-6.29,9.28q-3.6,4.15-6.9,8.79a7.28,7.28,0,0,1-1.16,1.34q-.67.61-1.4,1.22a3.73,3.73,0,0,1-2.26,1q-1,0-1.77-1.34t-1.47-1A2.12,2.12,0,0,1,27.86,28q-.25-.61-.49-1.28c-.16-.45-.33-.92-.49-1.4v.12l-.49-1.34q-.73-2.32-1.4-4.52a6.1,6.1,0,0,0-3.11-3.54l-.73-.24c-.24-.08-.53-.16-.86-.24a8.29,8.29,0,0,1,0-2,2.57,2.57,0,0,0-.37-1.77Q18.09,9,16.32,6.06a14.59,14.59,0,0,0-5-4.89A9.1,9.1,0,0,0,8.79.25,12.63,12.63,0,0,0,5.74,0,11.75,11.75,0,0,0,2.63.56,8.45,8.45,0,0,0,0,1.9L3.3,8.25l7.94,14L14.66,28a2.41,2.41,0,0,0,.18,2.08L16,31.95a39.05,39.05,0,0,1,3.85,8,19,19,0,0,1,.79,8.73,20.21,20.21,0,0,0-.12,3.85q.12,1.9.12,3.85a20.17,20.17,0,0,0-.06,2.75,8.92,8.92,0,0,1-.31,2.75,42.78,42.78,0,0,0-1,6.35q-.25,3.18-.24,6.35T19.18,81q.12,3.23,0,6.41a3.32,3.32,0,0,0,2.32,3.42q2.07.61,4.15,1a9.57,9.57,0,0,0,4.4-.18q3.66-.86,3.79-4l.73-16.37a22.62,22.62,0,0,1,.12-2.38,21.89,21.89,0,0,0,.12-2.26q0-3.18-.06-6.23t.06-6.23q.12-2,.24-4a6.31,6.31,0,0,1,1.1-3.42,7.89,7.89,0,0,0,1.77-4.34,12.49,12.49,0,0,0-.79-4.46,3.26,3.26,0,0,1,1-3.91q1.71-1.71,3.36-3.54t3.36-3.66L55.33,14.6q1.83-2.2,3.6-4.46a12.63,12.63,0,0,1,4.58-3.6,7.63,7.63,0,0,0,1.65-1Q66,5,67.29,4,64.85,3.61,63,3.43" transform="translate(0 0)"/><path id="Path_6" data-name="Path 6" class="cls-1" d="M131.54,80.94a2.15,2.15,0,0,1,.63,0,2.83,2.83,0,0,1-.63,0" transform="translate(0 0)"/><path id="Path_7" data-name="Path 7" class="cls-1" d="M130.75,80.94s.1,0,.1,0h-.1" transform="translate(0 0)"/><path id="Path_8" data-name="Path 8" class="cls-1" d="M68.16,81.22c.09,0,.16,0,.18,0s-.16,0-.18,0" transform="translate(0 0)"/><path id="Path_9" data-name="Path 9" class="cls-1" d="M69.82,81.26c0-.07.4-.06.47,0-.16,0-.27,0-.47,0" transform="translate(0 0)"/><rect id="Rectangle_4" data-name="Rectangle 4" class="cls-1" x="69.66" y="81.23" width="0.08" height="0.03"/><path id="Path_10" data-name="Path 10" class="cls-1" d="M76.25,81.34s0-.05.1,0,0,0-.1,0" transform="translate(0 0)"/><path id="Path_11" data-name="Path 11" class="cls-1" d="M72.34,81.35s0,0,0,0,0,0,.05,0,0,0,0,0" transform="translate(0 0)"/><path id="Path_12" data-name="Path 12" class="cls-1" d="M46.41,81.48s0,0,0,0c.18,0,.1,0,.18,0s.23,0,.26.09l-.47,0" transform="translate(0 0)"/><path id="Path_13" data-name="Path 13" class="cls-1" d="M59.85,81.71s.13,0,.08,0,.15,0,.18,0,0,0,0,0,.3,0,.34.08a2.69,2.69,0,0,1-.52,0l-.1-.06" transform="translate(0 0)"/><path id="Path_14" data-name="Path 14" class="cls-1" d="M58.9,81.75H59v0h-.05l0,0" transform="translate(0 0)"/><path id="Path_15" data-name="Path 15" class="cls-1" d="M58.38,81.78l0,0s-.09,0-.08,0Z" transform="translate(0 0)"/><path id="Path_16" data-name="Path 16" class="cls-1" d="M140.2,81.83a1,1,0,0,1,.47,0c-.1,0-.45,0-.47,0" transform="translate(0 0)"/><path id="Path_17" data-name="Path 17" class="cls-1" d="M130.22,81.84s0,0,0,0-.09,0,0,0" transform="translate(0 0)"/><path id="Path_18" data-name="Path 18" class="cls-1" d="M140.4,81.93a.75.75,0,0,1,.37,0,.75.75,0,0,1-.37,0" transform="translate(0 0)"/><path id="Path_19" data-name="Path 19" class="cls-1" d="M137.81,82s.09,0,.08,0a.11.11,0,0,1-.08,0" transform="translate(0 0)"/><path id="Path_20" data-name="Path 20" class="cls-1" d="M137.62,82s.09,0,.08,0a.11.11,0,0,1-.08,0" transform="translate(0 0)"/><path id="Path_21" data-name="Path 21" class="cls-1" d="M139.41,82s.23,0,.24,0,0,0,0,0-.23,0-.21,0" transform="translate(0 0)"/><path id="Path_22" data-name="Path 22" class="cls-1" d="M133.92,82H134s0,0,0,0h-.08Z" transform="translate(0 0)"/><path id="Path_23" data-name="Path 23" class="cls-1" d="M127.81,82.07c-.05,0,0,0-.13,0s-.11,0-.1,0,.17,0,.24,0" transform="translate(0 0)"/><path id="Path_24" data-name="Path 24" class="cls-1" d="M141.69,82.32h-.26l-.26,0s0,0-.05,0a4.42,4.42,0,0,1-.52,0c-.06,0-.09,0-.16-.05a1,1,0,0,1-.42,0c-.06-.08-.28-.06-.39-.11.74,0,1.48.09,2.31.11,0,0-.15,0-.24,0" transform="translate(0 0)"/><path id="Path_25" data-name="Path 25" class="cls-1" d="M127.63,82.22a.26.26,0,0,1-.13,0c.08,0,.13,0,.13,0" transform="translate(0 0)"/><path id="Path_26" data-name="Path 26" class="cls-1" d="M142.24,82.33a2.28,2.28,0,0,1,.76,0,1.46,1.46,0,0,1-.76,0" transform="translate(0 0)"/><path id="Path_27" data-name="Path 27" class="cls-1" d="M142,82.31c.07,0,.13,0,.13,0s-.14,0-.13,0" transform="translate(0 0)"/><path id="Path_28" data-name="Path 28" class="cls-1" d="M142.21,82.33c-.13,0-.1,0,0,0" transform="translate(0 0)"/><path id="Path_29" data-name="Path 29" class="cls-1" d="M139.85,82.36h.05l0,0s-.09,0-.08,0" transform="translate(0 0)"/><path id="Path_30" data-name="Path 30" class="cls-1" d="M143.11,82.39v0a.41.41,0,0,1,.18,0h-.18" transform="translate(0 0)"/><path id="Path_31" data-name="Path 31" class="cls-1" d="M143.37,82.42c0-.05.24,0,.29,0s0,0,0,0l-.26,0" transform="translate(0 0)"/><path id="Path_32" data-name="Path 32" class="cls-1" d="M143.68,82.4l.16,0c-.05,0-.16,0-.16,0" transform="translate(0 0)"/><path id="Path_33" data-name="Path 33" class="cls-1" d="M139.3,82.44l0,0h-.08s0,0,.05,0" transform="translate(0 0)"/><path id="Path_34" data-name="Path 34" class="cls-1" d="M142.66,82.51a.65.65,0,0,1,.21,0s-.07,0-.13,0a.14.14,0,0,0-.08,0" transform="translate(0 0)"/><path id="Path_35" data-name="Path 35" class="cls-1" d="M144,82.61c.14,0,.34,0,.39,0l-.08,0c-.14,0-.27,0-.32,0" transform="translate(0 0)"/><path id="Path_36" data-name="Path 36" class="cls-1" d="M143.24,82.73c-.08,0-.2,0-.21,0s.2,0,.21,0" transform="translate(0 0)"/><path id="Path_37" data-name="Path 37" class="cls-1" d="M143,82.72h-.16s0,0,.11,0,0,0,.05,0" transform="translate(0 0)"/><path id="Path_38" data-name="Path 38" class="cls-1" d="M143.53,83.41h.08s-.09,0-.08,0" transform="translate(0 0)"/><path id="Path_39" data-name="Path 39" class="cls-1" d="M145,84.1a.49.49,0,0,0-.29,0s-.07,0-.05,0,.59,0,.68,0c-.08,0-.25,0-.34,0" transform="translate(0 0)"/><path id="Path_40" data-name="Path 40" class="cls-1" d="M144.08,84.07c.08,0,.08,0,.16,0s-.17,0-.16,0" transform="translate(0 0)"/><path id="Path_41" data-name="Path 41" class="cls-1" d="M145.84,84.57s-.26,0-.24-.08c.18,0,.21,0,.37,0s-.07,0-.13.05" transform="translate(0 0)"/><path id="Path_42" data-name="Path 42" class="cls-1" d="M144.39,84.49h.05s0,0,0,0h-.05s0,0,0,0" transform="translate(0 0)"/><path id="Path_43" data-name="Path 43" class="cls-1" d="M143.94,85.32c.1,0,.14,0,.18,0s-.21,0-.18,0" transform="translate(0 0)"/><path id="Path_44" data-name="Path 44" class="cls-1" d="M143.76,85.36s0,0-.08,0,0,0,.08,0" transform="translate(0 0)"/><path id="Path_45" data-name="Path 45" class="cls-1" d="M146.81,85.79c0,.05-.27,0-.37,0s0,0,.05,0a1.12,1.12,0,0,1,.42.05c-.07,0-.05,0-.1,0" transform="translate(0 0)"/><path id="Path_46" data-name="Path 46" class="cls-1" d="M145.21,86.15c.11,0,0,.09.1.07s-.12,0-.24,0-.11,0,0-.05,0,0,.08,0,0,0-.05-.06h.1" transform="translate(0 0)"/><path id="Path_47" data-name="Path 47" class="cls-1" d="M144.84,86.24a.22.22,0,0,1,.16,0,.22.22,0,0,1-.16,0" transform="translate(0 0)"/><path id="Path_48" data-name="Path 48" class="cls-1" d="M143.5,86.47h-.11s.11,0,.11,0m.18.14c-.13,0-.13,0-.16,0h-.34s-.09,0-.08,0l.13,0s-.31,0-.45,0-.53,0-.68,0,.1-.06.08-.11c.13,0,.11,0,.21,0s0,0,.05,0,.27,0,.47,0a.88.88,0,0,0,.32.06s.13,0,.16,0-.05,0-.08,0a.75.75,0,0,0,.26,0s.07,0,.1,0a.92.92,0,0,0-.26.05s.22,0,.26.06" transform="translate(0 0)"/><path id="Path_49" data-name="Path 49" class="cls-1" d="M145.78,86.4c.08,0,.13,0,.13,0h-.13Z" transform="translate(0 0)"/><path id="Path_50" data-name="Path 50" class="cls-1" d="M145.1,86.42s-.09,0-.08,0h.05l0,0" transform="translate(0 0)"/><path id="Path_51" data-name="Path 51" class="cls-1" d="M143.74,86.5s0,0,0-.06.14,0,.16,0-.08,0-.18,0" transform="translate(0 0)"/><path id="Path_52" data-name="Path 52" class="cls-1" d="M145.44,86.49c.2,0,.42,0,.47.08-.17,0-.56,0-.6,0s.08,0,.13,0" transform="translate(0 0)"/><path id="Path_53" data-name="Path 53" class="cls-1" d="M144.21,86.49c.06,0,.1,0,.1,0s-.13,0-.1,0" transform="translate(0 0)"/><path id="Path_54" data-name="Path 54" class="cls-1" d="M144.24,86.61a1.66,1.66,0,0,0-.34,0s-.06,0-.05,0,.05,0,.05,0,.15,0,.29,0,0,0,0,0a.25.25,0,0,0,.13,0s.16,0,.21,0l.13,0a.7.7,0,0,1-.32,0s-.05,0-.13,0" transform="translate(0 0)"/><path id="Path_55" data-name="Path 55" class="cls-1" d="M142.5,86.66a.54.54,0,0,1-.26,0l.21,0s.07,0,.05.05" transform="translate(0 0)"/><path id="Path_56" data-name="Path 56" class="cls-1" d="M141.17,86.68c-.06,0-.1,0-.1,0s.1,0,.1,0" transform="translate(0 0)"/><path id="Path_57" data-name="Path 57" class="cls-1" d="M146.15,87s-.07.06-.24,0-.06,0,0-.06a.52.52,0,0,1,.26,0" transform="translate(0 0)"/><path id="Path_58" data-name="Path 58" class="cls-1" d="M146.86,87v0c.06,0,.1,0,.1,0l-.1,0" transform="translate(0 0)"/><path id="Path_59" data-name="Path 59" class="cls-1" d="M145.1,87s0,0,0,.07c-.17,0-.27.06-.39,0s.17-.11.37-.08" transform="translate(0 0)"/><path id="Path_60" data-name="Path 60" class="cls-1" d="M142.53,87.26h-.1a.77.77,0,0,1,.32-.09,3.77,3.77,0,0,0,.76,0c.23.07.7-.06.81.08a1.43,1.43,0,0,1-.45,0,.78.78,0,0,1-.32,0,4,4,0,0,1-.71,0,.16.16,0,0,1-.11,0,2.85,2.85,0,0,1-.29,0s.09,0,.08,0" transform="translate(0 0)"/><path id="Path_61" data-name="Path 61" class="cls-1" d="M141.93,87.23c.1,0,.14,0,.16,0s-.21,0-.1,0-.06,0-.05,0" transform="translate(0 0)"/><path id="Path_62" data-name="Path 62" class="cls-1" d="M141.16,87.31c.06,0,0-.06.18-.05,0,0,.1,0,0,.05s-.1,0-.18,0" transform="translate(0 0)"/><path id="Path_63" data-name="Path 63" class="cls-1" d="M142.45,87.29c.08,0-.17,0-.08,0h.08" transform="translate(0 0)"/><path id="Path_64" data-name="Path 64" class="cls-1" d="M140.38,87.3v0c-.09,0-.16,0-.24,0s.1-.07.24,0" transform="translate(0 0)"/><path id="Path_65" data-name="Path 65" class="cls-1" d="M145.1,85.67H145v0h.08Zm-.68.06c-.16,0-.18-.05-.34,0s.09,0,.05,0a1.55,1.55,0,0,0-.39,0c.09,0,0,0,0,.06a1.75,1.75,0,0,0,.68.05s0,0,0,0m-.84.17s-.06,0-.08.05a1.34,1.34,0,0,0,.32,0s0,0,0-.07-.13,0-.24,0m-.24-.05c.05,0,.12,0,.13,0s-.14,0-.13,0m-.13,0h.13s-.17,0-.13,0m-.63.08a.46.46,0,0,0,.29.11c0-.06.21-.07.32-.1a1.87,1.87,0,0,0-.6,0m.26-.11s.1,0,.1.07,0,0,0,0a.6.6,0,0,0,.21,0c-.07,0-.23,0-.34,0m.1-.12s-.11,0-.13,0,.13,0,.18,0,0,0,0,0,.11,0,.13,0-.09,0-.16,0m-.16-.11s0,0-.08,0a.55.55,0,0,0,.39,0,.87.87,0,0,0-.32,0m-.24.16c.07,0,.1,0,.16,0s-.18,0-.16,0m-.08-.15c-.24,0-.65,0-.71.08a.13.13,0,0,1,.1,0,3.89,3.89,0,0,0,.6,0s0-.06-.13-.07a.75.75,0,0,1,.21,0s-.07,0-.08,0m0-.74c.29,0,.42,0,.68,0,.08,0,0,0-.08,0s.06,0,.05,0l-.34-.05v-.07a4,4,0,0,0-.55,0,.36.36,0,0,1,.24.14m.52-.4-.32,0s0,0,0,.07c.14,0,.32,0,.34,0m-.71-.32s.08,0,.16,0-.12,0-.16,0m.92.37,0,0h-.05s0,0,.08,0m.05-1s-.07,0-.05,0,0,.05.05,0m-2.34,2.28a2.17,2.17,0,0,0,.42,0c0-.08-.39-.06-.42,0m.24-1.84s.06,0,.1,0,0,0-.1,0m-1.13-1v0c-.12,0,0,.09,0,.11a1.87,1.87,0,0,0,.87,0,8.48,8.48,0,0,0-.87-.05m0,3.42h.1s0,0-.05,0H140Zm.76-2.41h-.16s.19,0,.16,0m-2.18,2.43c-.16,0-.43-.07-.55,0s-.08,0-.08,0-.16,0-.18,0a7.71,7.71,0,0,0,.79,0s0,0,0,0,.06,0,0-.05m-.24-3.82s.06,0,.1,0,0,0-.1,0m-1-.27c-.09,0,.09,0,.1,0s-.12,0-.1,0M133,82.08a1.41,1.41,0,0,0-.5,0,1.11,1.11,0,0,0,.52,0s0,0,0-.06m-4.12.37h-.05l0,0h.05l0,0m-.16-.25h.1s-.12,0-.1,0m-1.44,0c-.12,0,0,.05,0,0s0,0,0,0m-1.05-.68s.07,0,.05,0a1.43,1.43,0,0,1-.32,0c0,.05.18,0,.26,0m-.1,1s0,0,0,0-.3,0-.45,0a.78.78,0,0,0,.47,0m-2.26-1.24a1,1,0,0,0,.47,0,1.21,1.21,0,0,0-.47,0m-.13.29h-.05s0,0,.08,0l0,0m-.18,0s0,0,0,0h.08s-.05,0-.05,0m-2.2-.24c-.3,0-.49,0-.71.06,0,.07.3,0,.47,0s.09,0,.16.05a.25.25,0,0,1,.18,0s0,0,.05-.05c.21,0,.57,0,.87-.05l.32,0c.1,0,.25,0,.29,0a11,11,0,0,0-1.63,0m-.89,1.3a.32.32,0,0,0,.26,0c0-.06-.16,0-.26,0m-.18,0s0,0,.1,0,.11,0,.1,0a.61.61,0,0,0-.21,0m-.52,0a4.67,4.67,0,0,0-.76,0,8.62,8.62,0,0,0-.89,0s-.12,0-.05.06.27,0,.42,0h.29l.18,0c.16,0,.43,0,.55,0l.13,0s.12,0,.13,0,0,0,0,0m-1.42-.94s0,0-.05,0,0,0,0,0h.55s0,0,0,0,.15,0,.21,0c-.25-.07-.39,0-.74,0m-5.75-.08s0,0,.08,0,0,0-.08,0m-4.09,1.69c-.23,0-.52,0-.6.05s.18,0,.24.06.33,0,.42-.08-.09,0-.05,0m-8.84-1.79c-.1,0-.07,0,0,.08s.06-.06,0-.08m-15.85-.22c-.12.05.13.05.16.08a1.25,1.25,0,0,1,.29,0c.06,0,.09,0,.08-.05s-.39,0-.52,0m-2-.08c-.31,0-.89-.05-1.1.06a.81.81,0,0,0-.37,0s0,0,0,0a1,1,0,0,0,.34,0,1.71,1.71,0,0,0,.32.06,2,2,0,0,1,.45,0s.12,0,.1-.06,0,0,0,0c.18,0,.15-.07.32-.07,0,0,0-.07-.05-.08m-2.65.51a.11.11,0,0,0,.1.06c-.05,0,0,0,0-.06a.25.25,0,0,0-.13,0m-.47-.2h-.08s0,0,.08,0Zm-.1,0h-.13c-.12,0-.24,0-.34,0l-.16,0c-.14,0-.3,0-.45,0a4.65,4.65,0,0,1-.68,0,.92.92,0,0,1-.34,0,2.43,2.43,0,0,0,1.1,0c.1,0,.09,0,.21,0h.08l.1,0,.34,0h.18s.06,0,.1-.05,0,0,0,0m-2.2.25s.1,0,.16,0l.1,0a3.94,3.94,0,0,0,.6,0s.11,0,.1,0,.08,0,.16,0,.09,0,.1,0a1.33,1.33,0,0,0,.63,0c.07,0,.05,0,.08,0l.1,0a2,2,0,0,0-.52,0l-.26,0a.66.66,0,0,0-.37,0c-.29,0-.58,0-.87,0,0,0,0,0,0,.05m-1.05-.21s0,0,0,0,.06,0,0,0m-.42.17c-.09,0,0,0,0,.05s.06,0,0-.05m-.6,0a3.15,3.15,0,0,0-.45,0s-.05.05,0,.09a1.25,1.25,0,0,1,.34,0c.06,0,.05,0,.05,0a3.71,3.71,0,0,0,.5,0l.05,0c-.07-.07-.33,0-.5,0m.37-.2c-.09,0,0,0-.05,0h.13a.15.15,0,0,1-.08,0m-4.25.14c-.06,0-.08,0,0,.05s0,0,0-.05m-1.71,0c-.08,0-.23,0-.32,0v.05a1.3,1.3,0,0,0,.29,0s0,0,0-.07m-.52,0c.08,0,.06,0,.1,0s-.13,0-.1,0m-4.8,0c.08,0,.16,0,.16,0s-.16,0-.16,0m-5.93-.13h-.68s-.08,0-.05.06c.3,0,.33,0,.66,0,0,0,0,0,0,0s0,0,0,.05.06,0,.05-.07m-1.15,0a.25.25,0,0,0-.18,0,2.15,2.15,0,0,0,.47,0s-.2,0-.29,0m-1.81-.16a.37.37,0,0,0-.13.09h-.1s0,0,0,.07h.29c.12,0,0-.1,0-.16m-.87.08a.4.4,0,0,1-.13-.07c-.12,0,0,.06-.08.06a.59.59,0,0,0,.34.1h.05c0-.05-.1-.1-.18-.08m-1.37,0h-.32c0,.07.25.07.32.05s0,0,0-.06m-.66,0s0,0-.05,0,0,0,.05,0,.11,0,.1-.06Zm-.6-.07s.07,0,.05.07.06-.05.1-.07a.33.33,0,0,0-.16,0m-.1,0c-.1,0,0,.06,0,.08s.08-.06,0-.08m-.58.21c-.06,0-.12,0-.13,0s-.1.06-.26,0c0,0,.12.05.18.08s.17,0,.16,0,.08,0,.16,0a.64.64,0,0,0,.45,0h-.1s0,0,0,0a1.27,1.27,0,0,0-.47,0m-.21-.21s0,0,0,0,.07,0,0,0,0,0,.08,0,0,0,0,0,.08,0,.13,0,0,0,.13,0a.2.2,0,0,1,.13-.05,1.39,1.39,0,0,0-.47,0m-.16.12h-.1s0,0,0,.07l.13,0s0,0-.05-.06m-.1-.08s-.05,0-.05,0,.09,0-.05.05l.1,0s-.07,0,0-.05m-.16,0h0c-.05,0,0,0,0,0Zm-.63.12h-.1v-.05c-.17,0-.16.05-.18.1a.74.74,0,0,0,.32,0l.05,0s0-.05-.08-.07m-2.24,8.26s0,0-.1,0,.05,0,.1,0m.93,0h-.15s.15,0,.15,0m8.53-8.18c.07,0,.05,0,.1,0s-.13,0-.1,0m.73,0s-.1,0-.08,0,.09,0,.08,0m25,9c.05,0,.27,0,.36,0s-.1,0-.15,0,0,0,0,0a1.11,1.11,0,0,0-.28,0s.07,0,.05,0m15.29-.67v0c-.06,0-.08,0-.08,0Zm1.65.22s.18,0,.15,0h-.18s0,0,0,0m.65-.27h-.18s.21,0,.18,0m.28.08c.07,0,.07,0,0,0Zm1.57,0s-.1,0-.13,0,.1,0,.13,0m1.68-.13c.07,0,0,0,0,0h.13s-.2,0-.18,0h0m.62,0h-.1s0,0,0,0,.06,0,.13,0m2-.11h0Zm.1,0h.1s0,0,.05,0,.32,0,.36-.05a.22.22,0,0,1-.13,0c-.05,0-.05,0-.08,0a1.52,1.52,0,0,0-.31,0s0,0,0,0m3-.31s0,0-.08,0,0,0,.08,0m.21,0h0m1.52,0c.07,0,.12,0,.08,0s0,0-.08,0Zm.31,0h-.05s0,0,0,0-.05,0-.05,0h.1m.18,0h.8a2.39,2.39,0,0,0,.59,0,.09.09,0,0,1-.08,0l-.31,0-.23,0s0,0-.05,0c-.23,0-.44,0-.67,0-.07,0-.07,0-.05.07m.46.14a.13.13,0,0,0,.08,0h-.15s.05,0,.08,0m.46-.31c.07,0,0,0,.13,0-.06,0-.21,0-.13,0m.72-.51h.41a3.14,3.14,0,0,0,.52,0c.36,0,.82,0,1.24,0,0,0,.06,0,.05,0a5.6,5.6,0,0,0-.82,0H114c-.29,0-.59,0-.88,0a11.73,11.73,0,0,0-1.62,0,.34.34,0,0,0-.21,0c.11,0,.14,0,.1,0a2.7,2.7,0,0,0,.52,0l.18,0a1.6,1.6,0,0,0,.31,0h.28m-.08.67h.57a1,1,0,0,1,.26,0s0,0-.05,0l-.23,0-.1,0c-.08,0-.07,0-.13,0a1.36,1.36,0,0,0-.39,0s0,0,.08.06m.93-.17h0s0,0,0,0a6,6,0,0,0-1,0c.08,0,.16,0,.28,0s.38,0,.57,0,.06,0,0,0c.16,0,.12,0,.13,0m0,.16h.26s0,0-.15,0,0,0,0,0l-.05,0c-.07,0-.06,0,0,0m.18-.19c-.05,0,0,0-.1,0s.17,0,.34,0,0,0,.1,0,0,0,0,0-.08,0-.13,0h-.1s0,0-.1,0,0,0,0,0m.15.18.28,0a.58.58,0,0,0-.34,0s0,0,.05,0m.49-.15s-.08,0-.08,0-.12,0-.13,0Zm.13,0h.1s0,0,0,0-.13,0-.1,0m.52-.5s0,0-.05,0h-.08s.17,0,.13,0m.54.51a2.88,2.88,0,0,0,.39,0c0-.06-.21,0-.41,0h-.26l-.21,0c.07.06.34,0,.49,0m.26-.09a1.1,1.1,0,0,0,.26,0s-.24,0-.26,0m.36-.43h.18s-.06,0-.05,0-.16,0-.13,0m.31.37c.2,0,.52,0,.72,0l-.08,0c-.13,0-.22,0-.23,0a1.05,1.05,0,0,0-.36,0s-.08,0-.05,0m.18.07s-.05,0-.05,0,0,0,0,0h.08m.52,0h.13a.18.18,0,0,0-.13,0s0,0,0,0m.21-.08s.06,0,.05,0-.1,0-.05,0m.36,0s.08,0,.08,0l.05,0c.11,0,0,0,0,0l-.15,0s.08,0,.05,0h-.21s0,0,0,0,.17,0,.21,0m.34-.16h.08v0h-.06Zm.62,0s-.2,0-.21,0h.21m.05,0,.14,0,0,0h-.13s0,0,0,0m.28-.24s0,0,.05,0h-.26l0,0h0s.09,0,.15,0m.23,0s0,0,0,0,0,0,0,0,0,0,0,0h-.1s0,0,0,0m.26.3h0m.13-.29c.09,0,.09,0-.05,0s-.06,0-.05,0,.1,0,.1,0m1.65.1s.05,0,.05,0-.09,0-.05,0m.31,0c.07,0,.06,0,.13,0h0c.06,0-.29,0-.34,0s.16,0,.18,0m.57,0c.06,0,0,0-.05,0s0,0,.05,0m.21-.11s0,0,0,0,0,0-.08,0h.1m.05.1h.08s0,0,0,0-.06,0-.05,0m.31,0h-.21s.32,0,.21,0m.21-.07s-.09,0-.15,0,.11,0,.15,0m-.23,0c.11,0,0,0,0,0s-.11,0-.1,0,.13,0,.1,0m-4,0a.64.64,0,0,0-.21,0h.23s0,0,0,0m4.51,0c.09,0-.07,0-.1,0s.12,0,.1,0m.28,0s0,0,0,0,.06,0,0,0m1,0s0,0,0,0a.46.46,0,0,0-.18,0s0,0,.15,0m1.47-.06c-.07,0-.07,0-.08,0s.08,0,.08,0m.08.18.26,0h-.08a.77.77,0,0,0-.31,0s.11,0,.13,0m.34-.12c.06,0,.16,0,.15,0s-.19,0-.15,0m.21.11s0,0,0,0-.12,0-.13,0,.07,0,.13,0m.28-.11s0,0,0,0l.28,0c.08,0,0,0,0,0a.48.48,0,0,1-.23,0,.41.41,0,0,0-.15,0Zm.34,0c.09,0-.07,0,0,0m.36-.07s0,0,0,0,0,0,0,0a1.93,1.93,0,0,0-.57,0s.08,0,.05,0a5.3,5.3,0,0,0,.57,0m-.18.08h.08c.09,0,0,0-.08,0Zm.49-.31h-.26c.06,0,.26,0,.26,0m.18.25h.08s0,0,0,0,.22,0,.13,0c.26,0,.32,0,.31.07a2,2,0,0,0,.44-.05h.1l.36,0s-.07,0-.08,0a2.5,2.5,0,0,0-.59,0,2,2,0,0,0-.44,0s0,0,0,0-.24,0-.21,0c-.15,0-.33,0-.49,0,0,0-.05,0-.08,0a1.42,1.42,0,0,0,.44,0m1.91,0h.62l.21.05a4.34,4.34,0,0,0,.52,0s0,0-.05,0a5.44,5.44,0,0,1,.72,0c0-.05-.26,0-.44,0h-.18s0,0,.05-.07h-.18a2.55,2.55,0,0,0-.67,0s.05,0,.08.05h-.59c-.13,0-.23,0-.34,0s0,0,0,0-.08,0-.18,0,0,0,0,0l.44,0m.08.11H130s.12,0,.1,0m1.06,0s0,0,0,0-.16,0-.15,0h.13m-.46-.51c.11,0,.21,0,.34,0s-.1,0-.13,0,0,0-.08,0h-.28a.37.37,0,0,0,.15,0m.59-.1c-.06,0-.15,0,0,0m.67,0s-.15,0-.1,0h-.12a.59.59,0,0,0,.23,0m.31-.2h.08s-.09,0-.08,0m.26.31c.18,0,.19,0,.34,0,0,0-.23,0-.31,0s0,0,0,.07m.13-.08h.1s0,0,.05,0-.16,0-.15,0m.28-.11s-.21,0-.26,0,.13,0,.15,0l.1,0m.13,0s0,0,0,0h.28s.07,0,.05,0h-.39s0,0,.05,0m.34.16h.05s0,0-.08,0h0m-.05-.3s0,0,0,0h.18s-.06,0-.15,0m.93.3s-.11,0-.13,0,0,0,0,0c.18,0,.12,0,.28,0,0,0,.1,0,.13,0s-.2,0-.26-.05.1,0,.08,0,0,0,0,0c-.2,0-.45,0-.7,0,.08,0,0,0,0,0a1.83,1.83,0,0,0,.34,0c.11,0,0,0,0,.08s-.33,0-.46,0,0,0-.05,0c.23,0,.52,0,.75,0m-.08,0h0Zm.44,0c.11,0,0,0,0,0s0,0,0,0m.05-.55s0,0,0,0h-.23s.15,0,.26,0m0,.27c.07,0,.06,0,.13,0s0-.06-.08-.07-.17,0-.08,0-.07,0-.08,0,.06,0,.1,0m.49-.28s0,0-.05,0h-.41c0,.05.35.05.46,0m0,.24h0a.66.66,0,0,1,.13,0s0,0,0-.05a.45.45,0,0,1-.21,0c-.2,0,.05,0,.08.07m.28,0h-.08s.12,0,.08,0m.08-.24h.26s0,0,0,0-.14,0-.31,0c0,0,0,0,0,0m1.21,0s0,0,0,0a3.14,3.14,0,0,0-.52,0,.32.32,0,0,1-.18,0,3.8,3.8,0,0,0,.7,0m.18,0h.15a.42.42,0,0,0-.21,0s0,0,.05,0m.39,0c.06,0,0,0,.08,0s0,0-.13,0,0,0,.05,0m-1.34-.47v0h.15l-.15,0m1.07-.75s-.07,0-.13,0,0,0,.13,0m1-.06h.08l0,0h-.05Zm-9.7,1.92c-.06,0,0,0-.05,0s-.08,0-.18,0,0,0,0,0h.31s0,0-.05,0m7.43-1H136s-.17,0-.13,0m-1.32-.82.11,0h-.11m1,.64c-.1,0,0,0-.08,0s.21,0,.23,0a.35.35,0,0,1-.15,0m-.23,0s.1,0,.07,0,.07,0,.08,0,0,0,0,0h-.13m.15-.63h0s0,0,0,0a3.31,3.31,0,0,0,.79,0s0,0,0-.05a3,3,0,0,0-.46,0v0a.58.58,0,0,1-.21,0h-.2s0,.05,0,.07h0m-1.15.06h0s.09,0,0,0l-.12,0h.06m1.1,1h0Zm-1.68,0h.1c-.07,0,0,0-.1,0s0,0,0,0m-5,.69s.48,0,.46,0-.28,0-.28,0a.36.36,0,0,0-.18,0m-.77,0s.08,0,.13,0-.09,0-.13,0M136.1,82v0c.05,0,.05,0,.1,0s0,0-.1,0m-9.66-.48v0c-.06,0-.05,0-.05,0h.05m1.36.19h.08s0,0,0,0h-.05Zm-24.56,8.48c.05,0,0,0,0,0h.23a.51.51,0,0,0-.21,0m1.21,0h0m.1,0a.7.7,0,0,0,.23,0c-.1,0-.12,0-.23,0s0,0,0,0m.28.05.1,0s-.05,0-.05,0-.08,0-.05,0m.41-.07s-.05,0-.13,0,.06,0-.05,0c.05,0,.11,0,.18,0m-.13.06.21,0s0,0,0,0,0,0-.08,0-.15,0-.1,0m.59,0s-.08,0-.13,0a.24.24,0,0,0,.13,0m1.16-.06h-.08s.12,0,.08,0m8.56-.43c.12,0,0,0,0,0M138.61,88s0,0,0,0c-.17,0-.2,0-.34,0a1.19,1.19,0,0,0,.36,0m.46,0,.05,0a.43.43,0,0,0-.23,0s.1,0,.18,0m-.72-.41.41,0s0-.05,0-.08-.12,0-.13,0a1,1,0,0,1-.31,0c-.09,0,0,.05,0,.08m.52-.1s-.07,0-.1,0,0,0,.1,0m.26.11c.07,0,.09,0,.08,0s-.1,0-.08,0m6.47-1.85c-.08,0-.15,0-.18,0s-.15,0-.18,0a4.54,4.54,0,0,0-1,0c-.05,0,0,.07,0,.09l.32,0c.22,0,.47,0,.68,0s.18,0,.37.05a1.1,1.1,0,0,1,.6,0c.05,0,0,.06-.05.1h0s.07,0,.1,0,0,0,0,0h-.15s-.11,0-.13,0h0a4.11,4.11,0,0,0-.78,0c-.08,0-.11,0-.13,0s0,0,0,0a7.1,7.1,0,0,1-.87,0l-.21.07s.24,0,.16.05a.85.85,0,0,1-.39,0s.12-.06.08-.07-.38,0-.45,0,.07,0,.05.09a1,1,0,0,1-.37,0h0c-.14,0-.29,0-.11,0l-.22,0c-.05,0-.18,0-.16,0-.13,0-.1,0-.24,0,.06,0,.05.1.08.16a.76.76,0,0,1-.24,0c-.1,0-.12-.06-.24-.08a2.49,2.49,0,0,0-.52,0h-.16c-.11,0-.35,0-.45-.07a.78.78,0,0,0-.26,0,.84.84,0,0,0-.37,0c.12,0,.18.06.18.09l.52.05v.08c-.35,0-.77,0-1.15.05a.94.94,0,0,1-.46.06s0,0,0,0h-.15s0,0,0,0a.12.12,0,0,0-.1,0h-.45a1.57,1.57,0,0,1-.36,0l.43,0s0,0,0,0h-.28s0,0-.08,0,0,0,.05,0h0a6,6,0,0,0,.68.06s.14,0,0,0-.25,0-.39,0h-.13a1.37,1.37,0,0,1-.36,0l-.17,0,0,0h-.17s0,0,0,0,0,0,0,0l-.17,0s0,0-.05,0a1.13,1.13,0,0,1-.32,0c-.05,0,0,0-.1-.05s-.1,0-.08,0,.07,0,.08,0a.71.71,0,0,1-.26,0c0,.06-.15,0-.13.07s.07,0,.09,0h0s0,0-.05,0H137a7,7,0,0,1,.9,0c.3,0,.65,0,1,0l.23,0a.88.88,0,0,1,.31,0s-.09,0-.1,0,.28,0,.26,0h-.18s0,0-.05,0l-.1,0a.6.6,0,0,0-.21,0s0,0-.1,0l-.13,0a.59.59,0,0,0,.23,0s-.07,0,0,0a5.23,5.23,0,0,0,.88,0c.07,0,.06,0,.15,0l.34,0s0,.05.08.05.05,0,.13,0a.56.56,0,0,0,.18,0l-.13.05a1.34,1.34,0,0,1-.36,0,.35.35,0,0,1-.15,0s-.08,0-.08,0a4.68,4.68,0,0,1-.67,0c-.22,0-.38,0-.62,0s-.33,0-.46,0-.16,0-.28,0-.15,0-.34,0-.23,0-.23.05.09,0,.1,0l-.21,0c-.05,0,0,0-.08,0h-.15s.06,0,0,0-.11,0-.18,0a2.12,2.12,0,0,0-.59,0s0,0,.1,0,0,0,.05,0,0,0,.08,0a.21.21,0,0,0,.13,0c.28,0,.53,0,.72,0,0,0,0,0,.08,0s-.06,0,0,0,0,0,0,.05-.07,0-.15,0-.33,0-.41,0,0,0-.08,0c-.24,0-.36,0-.57,0,0,0-.1,0-.08,0h.1c.1,0,0-.08,0-.12l-.37,0c-.15,0-.25,0-.4,0,.13,0,.5,0,.55.07s-.21,0-.23,0,.16,0,.21,0-.15,0-.13.07-.15,0-.15,0l.13,0s0,0,.1,0l.15,0s0,0,.08,0,0,0,0,0,0,0,.05,0,0,0,.13,0,0,0,.08,0a.69.69,0,0,0,.28.07,2.32,2.32,0,0,1,.49,0s0,0,.1,0,.06,0,.1,0,0,0,0,0h.33v0h.07s0,0,0,0h0s.08,0,0,0h.15a.78.78,0,0,0,.31,0c.21,0,.34-.05.49,0a.57.57,0,0,1,.21,0,.77.77,0,0,1,.26,0l-.31,0,.18,0a1.54,1.54,0,0,1,.41,0,.21.21,0,0,0,.15,0c-.07,0,.07,0,.15,0s.09,0,.15,0-.11,0-.08,0a3.75,3.75,0,0,1,.62,0c.06,0,.15,0,.18,0s-.12,0-.1,0,.15,0,.13,0h-.23s0,0,0,0h.36a.86.86,0,0,1,.23.05h-.15v0a1.56,1.56,0,0,0,.52,0c.09,0,.3,0,.28.05h-.15a5.59,5.59,0,0,1-.82,0l-.13,0a2,2,0,0,1-.26,0l-.08,0s-.1,0-.1,0,.11,0,.1.05-.17,0-.26,0l-.28,0c-.24,0-.77,0-.7.08a.36.36,0,0,0-.18,0l-.23,0c-.18.06-.71,0-.77.07l.28,0a1.51,1.51,0,0,1,.46,0h.26c-.07,0,.07,0,.15,0-.08,0-.09,0-.1,0l.18,0a.47.47,0,0,0,.18.07c-.08,0,0,0-.05,0a6.2,6.2,0,0,0-.67,0s-.05,0-.08-.05-.13,0-.23,0,.11,0,.1,0-.43,0-.67,0c0,0-.07,0-.08,0h-.54a.77.77,0,0,0-.26,0h-.21c-.07,0-.31,0-.41,0a.59.59,0,0,1-.21,0,.48.48,0,0,1-.15.07.57.57,0,0,0-.34,0l.34.07c.06,0,0,0,.1,0l.41,0c-.06.11-.46,0-.77.07-.05,0-.11,0-.1,0a11.61,11.61,0,0,0-1.16,0l.13,0s.08,0,.15,0-.06,0-.05,0l.28,0,.13,0s0,0,.05,0,0,0,0,0a8.23,8.23,0,0,0,.82,0s.14,0,.1,0-.1,0-.21,0,0,0,0,0a1.2,1.2,0,0,0-.34,0c.06,0,0,0,0,0h-.23s0,0,0,0-.05,0-.1,0-.25,0-.36,0a.22.22,0,0,1-.13,0c-.13,0-.32,0-.41,0h-.18c-.45,0-1,0-1.47,0,0,0-.07,0-.1,0s0,0,0,0a.66.66,0,0,0-.31,0s-.11,0-.1.05a3.35,3.35,0,0,1-.57,0,3.78,3.78,0,0,0-.75,0c-.07,0-.06,0-.13,0s0,0-.08,0,0,0,0,0-.12,0-.18,0l-.1,0h-.39a3.31,3.31,0,0,0-.52,0,.81.81,0,0,0,.31,0l.46,0,.26,0,.21,0a5.4,5.4,0,0,1,.65,0h0l.62,0,.15,0,.15,0s0,0,.05,0a1,1,0,0,0,.28,0c.26,0,.51,0,.85,0v0h.7a2.77,2.77,0,0,0,.46,0s.1,0,.13,0h.23s.06,0,0,0h-1.21l-.36,0-.26,0h-.57s0,0,0,0-.05,0-.1,0,0,0-.05.05.08,0,.15,0,.22,0,.23,0a3.31,3.31,0,0,0-.52.06,3.73,3.73,0,0,1,.41,0,.82.82,0,0,1,.26,0,2.42,2.42,0,0,0,.77,0s.13,0,.13,0c-.44,0-.75,0-1.11,0l-.26,0c-.07,0-.19,0-.21,0s.07,0,.13,0h1.73c.08,0,.06,0,.15,0s.08,0,.15,0,.41,0,.44,0c-.14,0-.33,0-.34,0l-.15,0c-.2,0-.49,0-.65,0l-.05,0a.69.69,0,0,0-.28,0c-.15,0-.3,0-.46,0h-.44l-.15,0h-1.47c-.45,0-.93,0-1.24,0h-.18l-.13,0a4,4,0,0,1-.67,0c-.16,0-.37,0-.52,0s0,0-.13,0a4.87,4.87,0,0,1-.75,0,2.79,2.79,0,0,0-.62,0c-.29,0-.46,0-.67,0a1.35,1.35,0,0,0-.36,0c-.06,0-.06,0-.13,0s-.36,0-.57,0l-.18,0s-.11,0-.1,0,.09,0,.08,0l-.41,0a1.16,1.16,0,0,0-.28,0s.07,0,.05,0c-.32,0-.7,0-1.06,0h-.05s0,0,0,0h-.13a.27.27,0,0,0-.18-.05c-.16,0-.42,0-.52,0,.08,0,.16,0,.18,0l-.36,0s0,0,0,0h-.23c-.17,0-.54,0-.77,0a2.31,2.31,0,0,0-.49,0s0,0,0,0a2.5,2.5,0,0,0-.52,0c.07,0,.26,0,.28,0l-.28,0c-.13,0-.32,0-.41,0s-.49,0-.49.07h-.13s.07,0,.05,0a5,5,0,0,0-.67,0H118s0,0,0,0h-.13s0,0-.08,0a.81.81,0,0,0-.23,0s0,0,0,0,.17,0,.18,0h-.21s0,0-.1,0,0,0,.05.05h-.44l-.41,0a.38.38,0,0,0-.31,0l-.39,0c.05,0,.22,0,.23,0h-.08l-.18,0s-.05,0-.15,0l-.18,0-.44,0c-.1,0-.19,0-.18,0s-.1,0-.13,0h.08a.49.49,0,0,1-.23,0s-.25,0-.31,0,.07,0,0,0,.07,0,.18,0,.46,0,.59,0,.15,0,.28,0a1.88,1.88,0,0,1,.36,0s0,0,.05,0,.37,0,.49,0l.15,0c.3,0,.54,0,.8,0,.06,0,0,0,.13,0h.15a4.12,4.12,0,0,1,.57,0s-.06,0,0,0a.62.62,0,0,1-.26,0s0,0,0,0a1.52,1.52,0,0,1-.59,0,4.08,4.08,0,0,1-.52.05h-.28l-.1,0h0c-.14,0-.32,0-.44,0l-.23,0s.07,0,.05,0a2.8,2.8,0,0,1-.41,0s.15,0,.13-.08-.24,0-.39,0,0,.05-.05.07h-.23l-.21,0s0,.05-.08.05l-.13,0s0,0-.13,0,0,0,0,0c-.23,0-.36,0-.59,0a.58.58,0,0,1-.21,0l-.18,0c-.28,0-.59,0-.9,0a1.32,1.32,0,0,0-.41,0s-.19,0-.18,0,0,0,.08,0a1.82,1.82,0,0,1-.67.05,2.22,2.22,0,0,1-.65,0,9.31,9.31,0,0,1-1.08,0c-.05,0-.12,0-.15,0h-.18l-.21,0a2.4,2.4,0,0,0-.41,0,1.9,1.9,0,0,0-.46,0,.59.59,0,0,1-.23,0s0,0-.08,0-.23,0-.34,0,0,0-.05,0l-.31,0a.91.91,0,0,0-.44,0s0,0,0,0-.11,0-.08,0a3.75,3.75,0,0,0,.59,0l.23,0s0,0,.1,0a1.56,1.56,0,0,1,.39,0s-.2,0-.21,0h.1s.1,0,.15,0H108s.06,0,0,0,0,0-.08,0,0,0-.13,0h-.52s0,0-.13,0l.08,0a3.94,3.94,0,0,1-.54,0s0,0-.05,0l.28,0v0a4.12,4.12,0,0,0,.57,0s.17,0,.23,0h.1l.57,0s.07,0,.13,0,.44,0,.49,0a3,3,0,0,1-.9,0l-.18,0a4.64,4.64,0,0,0-.57,0s.08,0,.05,0-.23,0-.23,0,.12,0,.13,0,0,0-.1,0,0,0,0,0c-.22,0-.22,0-.41,0,0-.06-.22-.08-.34-.05s.07,0,0,0-.1,0-.23,0c0,0-.11,0-.13,0l.1,0c-.18,0-.33,0-.46,0h-.54a3.81,3.81,0,0,0-.49,0,1.33,1.33,0,0,0-.36,0l.28,0s0,0,0,0,.12,0,.21,0,.45,0,.67,0c0,0,.17,0,.08,0s.07,0,.1,0,0,0,0,0-.08,0-.08,0,.17,0,.18,0a.35.35,0,0,1,.26,0c.23,0,.38.06.54,0s0,0,.08,0H107c-.07.07-.31,0-.52,0l-.15,0s.08,0,0,0-.07,0-.15,0,0,0-.08,0c-.24,0-.46,0-.7,0h-.52l-.26,0h-.8l-1.06,0,.23,0s.15,0,.18,0v0a4.55,4.55,0,0,0,.54,0,2.77,2.77,0,0,0-.46,0c-.08,0,0,0-.1,0s-.1,0-.13-.05h-.31l-.21,0c-.13,0-.3,0-.41,0s-.2,0-.31,0c.06,0,.16,0,.18,0a.9.9,0,0,1-.23,0,2.12,2.12,0,0,1-.36,0c-.12,0-.31,0-.34,0s0,0,.1,0,0,0-.1,0a.68.68,0,0,1-.28,0c.15,0-.19,0-.08,0h-.08l-.52.05s0,0,.08,0c.26,0,.55,0,.72,0a6.65,6.65,0,0,1,.9,0s.07,0,.13,0a1.75,1.75,0,0,1,.23,0H102s0,0,0,0c-.3,0-.65,0-1,0h-.62s-.05,0-.08,0-.15,0-.21,0a2.44,2.44,0,0,0-.59,0s.07,0,.05,0l-.31,0H99l-.1,0h-.15c-.12,0-.12,0-.23,0s-.1,0-.1,0a5.79,5.79,0,0,0-.72,0,.83.83,0,0,0-.23,0,.85.85,0,0,0,.31,0s.15,0,.18.05c-.35,0-.7,0-1.06,0h-.67l-1,0h-.64a5.26,5.26,0,0,0-.62.05c-.42-.06-.9,0-1.42,0,0,0-.11,0-.1,0-.43,0-1,0-1.57,0a1.14,1.14,0,0,1-.31,0c-.22,0-.41,0-.65,0h-.1l-.39,0H87.27l-.34,0h-.54l-.59,0H83.94l-.52,0a2.89,2.89,0,0,0-.54,0,3.63,3.63,0,0,0-.49,0l.18,0,.21,0a11.63,11.63,0,0,0,1.21,0h.15s.11,0,.1,0a4,4,0,0,1-.54,0h-.88c-.4,0-.8,0-1.24,0,0,0,.24-.05.15-.09s-.18,0-.18,0a3.87,3.87,0,0,1-.59,0l-.46,0-.15,0c-.09,0,0,0-.1,0l-.28,0s0,0-.08,0-.11,0-.23,0a1.14,1.14,0,0,0-.31,0c-.29,0-.62,0-.9,0l-.46,0a4.53,4.53,0,0,0-.65,0s-.1,0-.08,0a4,4,0,0,1-.67,0c.18,0,.46,0,.57-.05-.2,0-.51,0-.85,0a.9.9,0,0,1-.39,0s0,0-.05,0a1.56,1.56,0,0,0-.52.08,5.39,5.39,0,0,1-.59,0s.2,0,.18,0-.46,0-.36,0c-.26,0-.66,0-1,0,0,0,0,0-.05,0-.43,0-.87,0-1.26,0l-.52,0a14.79,14.79,0,0,1-1.65,0l-2.68,0-.82,0H66l-1,0h-.41l-.75,0-1.5,0H62.1l-.7,0-1.32-.05-1.86-.06-1.11,0h-.26l-.65,0h-.34l-.9,0-.18,0h-.34l-.52,0-.34,0-.36,0c-.32,0-.68,0-1,0l-.41,0h-.08l-.39,0h-.1c-.72,0-1.44-.08-2.19-.1l-.1,0-.8,0-.21,0h-.36l-.39,0c-.27,0-.56,0-.88,0a8,8,0,0,0-1.19,0h-.77c-.4,0-.79,0-1.11,0l-.44,0-.72-.1a.17.17,0,0,1-.1-.19c0-.11-.54-.13-.49-.25a.18.18,0,0,0,.13-.07l-.23-.08a.48.48,0,0,0,0-.25l.1,0c0-.08.08-.12,0-.17a.64.64,0,0,0,.21-.07s-.18-.08-.23-.11,0,0,0,0-.07,0-.08,0,0,0,0,0,0,0-.05,0,.08-.1.1-.13,0-.09,0-.13h-.1c-.06-.08.11-.12,0-.17s0,0,0,0h0c-.08-.06,0-.11-.08-.14l-.08,0L41,87.79s.07-.06,0-.08,0,0,0,0,.07,0,.08-.06,0,0,0,0,0,0,0,0c-.19,0-.15-.07-.34-.08,0,0,0,0-.05-.05.1,0,0,0,0-.07s.06,0,.08-.07,0,0,0,0,.08,0,.08-.07,0,0,0,0l.05,0-.05,0a.24.24,0,0,0-.13-.07c.07-.09.06-.1,0-.19s.07,0,.08,0,0,0,0,0c.18,0,.12-.09.21-.13-.08,0-.21-.09,0-.11,0,0,0-.05.05-.06s0-.09,0-.13c.12,0,0-.06.08-.1l0,0c-.12-.05-.28-.07-.27-.14s.4-.23.47-.39-.14-.14,0-.23c-.2-.13.05-.25.08-.38s.1-.11.13-.17.2-.09.24-.14c.41,0,.18-.13.21-.23s.13-.08.18-.11.13-.13.13-.19.1,0,.1,0,.1-.2-.1-.25c0-.12-.09-.19,0-.29s-.26,0-.24-.12a.69.69,0,0,1,.24,0c.23-.09,0-.18,0-.28s.11-.05.13-.07a.72.72,0,0,0,.13-.15s0,0,0,0,.07,0,.08-.06,0-.15,0-.22.24-.21.26-.3-.26-.29-.29-.45a1,1,0,0,1,.39-.15c.15-.11.5-.15.68-.26a.9.9,0,0,0,.26-.05s.12,0,.1,0,0,0,0-.08a7.4,7.4,0,0,1,.95,0c.05,0,0,0,.08.05a7.23,7.23,0,0,1,.79,0s.09.06.16.08c.25,0,.32.08.55,0,0,0,0,0,0,0s.24,0,.32,0l.39,0,.26,0h.18l.34,0a1.31,1.31,0,0,0,.52-.07c-.05,0,0,0-.13,0,.08,0-.12,0-.13-.08a.6.6,0,0,1,.26,0c.07,0,.1-.09.05-.1s0,0-.13,0-.41,0-.58,0c0,0,0,0,.05,0s-.07,0-.1,0a1.17,1.17,0,0,0,.42,0c.1,0,.25,0,.37,0s.35,0,.5,0a2.26,2.26,0,0,0,.42,0,2.14,2.14,0,0,1,.6-.05,1,1,0,0,1,.26,0s0,0,.08,0c.85,0,1.61,0,2.36,0l.13,0a1.23,1.23,0,0,1,.34,0,.8.8,0,0,1,.26,0,4.59,4.59,0,0,0,1.1,0c.08,0,0,.09.1.12a1.39,1.39,0,0,0,.29,0,.23.23,0,0,0,.13,0,1.66,1.66,0,0,1,.5,0c.07,0,.08-.08.1-.12s.08,0,.08.07.2.06.18.11l.32.05a1.34,1.34,0,0,0,.66-.06s0,0,0-.05a4.52,4.52,0,0,1,1.08,0c.06,0,.07,0,.13,0s.39,0,.34.12a1.44,1.44,0,0,1-.34.09s0,.1,0,.12a1.81,1.81,0,0,0-.42,0s0,.06.05.07a2,2,0,0,1,.58,0c.1,0,.07,0,.16,0l.18,0a2.22,2.22,0,0,1,.45,0h1.6s.1,0,.1-.06a1.46,1.46,0,0,1-.37-.05c.18,0,.07-.12.05-.19s-.12,0-.13,0c.21-.08.65,0,.89-.05a3.27,3.27,0,0,1,.55.08c0,.05.1.08.16.11a4.42,4.42,0,0,0,.45,0s0,0,0-.05.25,0,.18-.12l.18,0c.12,0,.18,0,.29,0s0,0,.05,0a.78.78,0,0,0,.32,0c0,.05.2,0,.21.09a1.18,1.18,0,0,1,.29,0c.08,0-.08-.05.05-.05s0,.07.1.07.11,0,.16-.08-.09,0-.16,0,.13,0,.1-.07a.31.31,0,0,0,.16,0l.05,0h.18l.13,0c.5,0,.91,0,1.44,0,.05,0,.05,0,.1,0l.13,0,.24,0,.13,0h.84c.06,0,0,0,.13,0a1.44,1.44,0,0,0,.42,0l.13,0a4.67,4.67,0,0,0,.71,0c.09.07.3,0,.45,0s0,0,.1,0,.06,0,.16,0,.12,0,.16,0,.12,0,.16,0a.58.58,0,0,1,.29,0,1.92,1.92,0,0,1,.71,0s.07,0,0-.06a1.1,1.1,0,0,0,.47,0s0,0,0,0c-.18,0-.26,0-.29-.1a1.8,1.8,0,0,1,.52,0c-.09,0-.19,0-.16.09.23,0,.53,0,.84,0l.16,0a1.12,1.12,0,0,0,.42,0s0,0,0,0,0,0,.05,0c.68,0,1.5,0,2.34,0h1.6a5.18,5.18,0,0,1,1.23.05c.17,0,.3,0,.45,0s0,0,0,0,0,0,.13,0a6.79,6.79,0,0,1,.87,0l.39-.08a5.53,5.53,0,0,0-.66-.08.55.55,0,0,1-.29,0c0-.07.26,0,.42,0l.16,0c.2,0,.42,0,.63,0a5.52,5.52,0,0,0,.89,0c.23,0,.47,0,.71,0l.42,0h.58c.23,0,.5,0,.71,0s.21,0,.32,0,.37,0,.55,0H85c.24,0,.54,0,.79,0l.1,0h1c.24,0,.52,0,.68,0s.5,0,.71,0a2.47,2.47,0,0,0,.39,0c.12,0,.13.08.29.08a3.23,3.23,0,0,1,1.05,0,.56.56,0,0,0,.39.08.26.26,0,0,0,.13-.05,10.24,10.24,0,0,1,1.21,0h.34l.29,0,.71,0c.37,0,.85,0,1.13,0l.29,0,.18,0c.62,0,1.22,0,1.81.05h.39c.73,0,1.42,0,2.15.05a2.61,2.61,0,0,0,.52.07,2.29,2.29,0,0,1,.74-.05h.52c.56,0,1.15,0,1.63,0a.4.4,0,0,0,.18.05,5.18,5.18,0,0,1,.52,0,2.15,2.15,0,0,1,.58,0l.34,0,.34,0a4.72,4.72,0,0,0,.63,0c.49,0,1,0,1.55,0a1,1,0,0,0,.45.05c.07,0,.08,0,.13,0a6.66,6.66,0,0,1,1,0h.39l.34,0c.18,0,.34,0,.5,0l.18,0c.15,0,.29,0,.42,0a4.3,4.3,0,0,1,.6-.06c.77,0,1.23.1,1.89.06l.1,0s.09,0,.13,0l.13-.06a5.44,5.44,0,0,1,.68,0,3.63,3.63,0,0,1,.84,0l.24,0a5.75,5.75,0,0,1,.71,0s.15,0,.1-.11a8,8,0,0,1,1.13-.05c.33,0,.73,0,1.1,0l.13,0H118l.18,0c.44,0,.9,0,1.34,0,.06,0,.06,0,.16,0l.24,0,.16-.06h1.23c.3,0,.6,0,.92-.06l.95,0,1.5-.06.68,0c.29,0,.53,0,.81,0l.87,0c.32,0,.63,0,.92-.05s.69,0,1.05,0l.39,0c.3,0,.81,0,1.07,0a1.47,1.47,0,0,1-.58,0l-.45,0h-.6c-.24,0-.46.06-.66.07a12.41,12.41,0,0,0-1.52.12c-.13,0-.3,0-.37,0s0,0-.08,0,0,0-.1,0c-.61,0-1.06,0-1.47,0,0,0,0,0,.1,0s0,0,.05,0,.29,0,.45,0l.24,0a4.42,4.42,0,0,0,.76-.06.28.28,0,0,0,.16,0,.38.38,0,0,0,.24,0s.1,0,.1,0l.42,0,.39,0h.08c.13,0,.27,0,.39,0,.3,0,.76,0,1,0a2.14,2.14,0,0,1,.66,0,1.44,1.44,0,0,1-.39.05l-.63,0-.76,0-.13,0a10.13,10.13,0,0,0-1.29,0c.06,0,.09,0,.13,0a4.85,4.85,0,0,0,.87,0c.1,0,.1,0,.18,0s0,0,.08,0,0,.06.05.06,0,0,0,0a3.69,3.69,0,0,1,1,0s.16,0,.16,0a.42.42,0,0,0-.18,0l.1,0c-.35,0-.84,0-1.13.08a.6.6,0,0,0,.24,0s0,0,.08,0v0c.19,0,.27,0,.5,0l.13,0s.16,0,.26,0a.4.4,0,0,1,.26,0,8.18,8.18,0,0,1-1.13.08l-.16,0s-.13,0-.18,0-.16.06-.26.08c.07,0,.06,0,.13.05a.63.63,0,0,1,.26,0,2.5,2.5,0,0,0-.52.12h-.21c-.23.06-.76,0-1,.08l.32,0s0,0,.08,0h.18a2.37,2.37,0,0,1,.45,0c.07,0,.12,0,.1.06s.13,0,.13,0,0,0,0,0-.13,0-.1,0c.18,0,.11.06.26.05s0,0,.08,0,.1,0,.21,0c-.1,0,.14,0,0-.06.08,0,.2,0,.21,0s-.15,0-.08,0,.08,0,.1,0,.09,0,.18,0,0,0,.05,0,.23,0,.16-.08c.08,0,.06,0,.16,0s0,0,.05,0,0,0,0,.07a.76.76,0,0,1,.32,0,.86.86,0,0,0,.39.06l.1,0h.47s0,0,.08,0c.3,0,.59-.08.74,0a10.28,10.28,0,0,0,1.44,0c0-.06.1,0,.18-.07a.24.24,0,0,1-.16,0s.23-.1.29,0,0,0,.05,0a1.52,1.52,0,0,1,.45,0l.37,0s-.22,0-.29.08,0,0,.08,0a1,1,0,0,0,.5,0s.06,0,.05,0c.19.06.9.1,1,0s0,0,0,0,.15,0,.21,0a.69.69,0,0,0,.29,0c.23.07.8.06.84.16.2,0,.54,0,.84,0a1,1,0,0,0,.32,0c-.31-.07-.81,0-1.15-.06,0,0,.23,0,.24-.08a.85.85,0,0,1-.24,0c-.14,0-.28,0-.42,0s-.29-.05-.37-.1a4.11,4.11,0,0,1,.92,0s0,0,0,0,0,0,.05.07a1,1,0,0,1,.32,0,.19.19,0,0,0-.16,0c.36.05.9.05,1.37.09,0,0,0,0,.05,0a2.93,2.93,0,0,0,.42,0c.07,0,0,0,.05,0s0,0,.1,0l-.08.06s-.12,0-.1,0,.1,0,.26,0c0,0,0,0,.05,0a2,2,0,0,1,.42.06s.13,0,.13,0-.09,0-.13,0-.26,0-.18,0c.34,0,.67.06,1.1,0,0,0,0,0,.08,0s-.08,0-.08,0a1.76,1.76,0,0,0-.45,0c-.07,0-.05,0-.08,0s.18,0,.24,0,.26,0,.39,0,0,0,.05,0c.21,0,.38.05.6.06s.52,0,.73,0,.17,0,.26,0a2.88,2.88,0,0,1,.63.05,1.84,1.84,0,0,0-.34.06c.13,0,.07,0,.1.07s.07,0,.08,0-.06.06,0,.08c-.17,0-.41,0-.55,0a3.07,3.07,0,0,0,.45,0l.1.05s-.08,0-.05.07a3.7,3.7,0,0,0,.55,0,4.13,4.13,0,0,0,.52.06s0,0,.05,0,0,0,.16,0a.51.51,0,0,0,.39.11s0,0,0,0,.13,0,.16,0,.26,0,.45,0c0,0-.16,0-.24,0a1.16,1.16,0,0,1-.29.06s0,0-.05,0a.36.36,0,0,0-.24,0c-.08,0,0,0-.13,0-.51,0-1.17,0-1.57,0a2.58,2.58,0,0,0,.81,0c.16,0,.3,0,.47,0s.64,0,.84,0a.4.4,0,0,1,.18,0l.45.05c.14-.06.32,0,.45,0s-.17,0-.26,0l-.63,0h-.42a2.85,2.85,0,0,0-.79,0,1.77,1.77,0,0,0-.37-.06,1.86,1.86,0,0,1-.55,0,1.31,1.31,0,0,0-.39,0c.12,0,0,0,.05,0s.31.06.5.06l.16,0a7.05,7.05,0,0,1,.71,0,2.53,2.53,0,0,0,.58,0c.13,0,.33,0,.45,0s.23,0,.39,0c0,0,.11,0,.1,0s-.1,0-.24,0l-.26,0-.1,0c-.22,0-.6,0-.79,0s-.32,0-.42.06c.15,0,.21,0,.32,0a7.42,7.42,0,0,0,.81.09c.05,0,.05,0,.1,0s.13,0,.21,0a4.24,4.24,0,0,0,.71.09c0,.13-.57,0-.66.11s.1,0,.05.07a3.09,3.09,0,0,1-.52,0s-.06,0-.08,0,0,0,0,0a3.32,3.32,0,0,1,.45,0l.08,0,0,0h.08a7.22,7.22,0,0,0,.79,0s.15.06.08.08a1,1,0,0,1-.29,0,7.23,7.23,0,0,1-.76,0c-.07,0-.18,0-.16,0h-.63a2.13,2.13,0,0,0-.47,0c.08.07.44,0,.52.05l0,0s.1,0,.13,0a.16.16,0,0,1-.13,0,.32.32,0,0,1-.16,0s0,0,.05.05.07,0,.16,0,0,0,.05,0,0,0,.08,0,0,0-.08.05a1.42,1.42,0,0,0,.52,0,3.63,3.63,0,0,1,.63.1s.11,0,.13,0c-.16,0,0,.07-.1.13l.21.05c-.11,0-.13,0-.24,0h-.24a4,4,0,0,1-.55,0c0,.06-.19,0-.26.05s.16,0,.24,0a1.11,1.11,0,0,1-.37,0,11.9,11.9,0,0,1-1.44.08s0,0,0,0c.35,0,.76,0,1.13,0h.26c.13,0,.21.06.32.07h.08l.32,0c.18,0,.25,0,.34,0s.11,0,.16,0,0,0,0,0l.5,0c.14,0,.27,0,.29,0s-.18.05-.24.09c.16,0,.07,0,.13.05a2.1,2.1,0,0,1,.89,0,2.69,2.69,0,0,1-.68,0" transform="translate(0 0)"/><path id="Path_66" data-name="Path 66" class="cls-1" d="M69.34,81.23c.09,0,.14,0,.21,0a.43.43,0,0,1-.21,0" transform="translate(0 0)"/><path id="Path_67" data-name="Path 67" class="cls-1" d="M133.06,81.82c-.12,0-.43.08-.45,0H133c-.05,0,.1,0,0,0" transform="translate(0 0)"/><path id="Path_68" data-name="Path 68" class="cls-1" d="M139.07,82.07s-.19,0-.18,0,.08,0,.16,0,.1,0,0,0" transform="translate(0 0)"/><path id="Path_69" data-name="Path 69" class="cls-1" d="M145.87,85c-.09,0-.29,0-.34.07s.29,0,.26.08a6.32,6.32,0,0,1-.73,0s0,0-.08,0a.18.18,0,0,1,.16-.1.22.22,0,0,0,.18,0s-.14,0-.1-.05a1.32,1.32,0,0,1,.66,0" transform="translate(0 0)"/><path id="Path_70" data-name="Path 70" class="cls-1" d="M141.77,86.45s.11,0,.1.05a.3.3,0,0,1-.13,0,.6.6,0,0,0-.26,0c0-.05.1,0,0-.07a1,1,0,0,0,.29,0" transform="translate(0 0)"/><path id="Path_71" data-name="Path 71" class="cls-1" d="M139.67,82.06l.37,0,.39,0h.18c.07,0,.08,0,.16,0s.27,0,.32.05a11.2,11.2,0,0,1-1.31-.09s-.13,0-.11,0" transform="translate(0 0)"/><path id="Path_72" data-name="Path 72" class="cls-1" d="M145.42,86.49c-.13,0-.2,0-.21-.07a.2.2,0,0,1,.21.07" transform="translate(0 0)"/><path id="Path_73" data-name="Path 73" class="cls-1" d="M146.54,86.58h-.21v0a.88.88,0,0,1,.26,0s0,0-.05,0" transform="translate(0 0)"/><path id="Path_74" data-name="Path 74" class="cls-1" d="M80.32,90.85a4.18,4.18,0,0,1-.59,0,2,2,0,0,1,.59,0" transform="translate(0 0)"/><path id="Path_75" data-name="Path 75" class="cls-1" d="M84.42,90.78h-.08s.1,0,.08,0" transform="translate(0 0)"/><path id="Path_76" data-name="Path 76" class="cls-1" d="M85.92,90.77a1.15,1.15,0,0,1-.28,0c.1,0,.3,0,.28,0" transform="translate(0 0)"/><path id="Path_77" data-name="Path 77" class="cls-1" d="M86.41,90.69s0,0-.05.07H86c.22,0,.22-.06.44-.07" transform="translate(0 0)"/><path id="Path_78" data-name="Path 78" class="cls-1" d="M87.26,90.74a1,1,0,0,1-.33,0c.1,0,.28,0,.33,0" transform="translate(0 0)"/><path id="Path_79" data-name="Path 79" class="cls-1" d="M87.75,90.74a1.53,1.53,0,0,1-.33,0,1.09,1.09,0,0,1,.33,0" transform="translate(0 0)"/><path id="Path_80" data-name="Path 80" class="cls-1" d="M88.14,90.74h-.23a.47.47,0,0,1,.23,0" transform="translate(0 0)"/><path id="Path_81" data-name="Path 81" class="cls-1" d="M100.39,90.31s.13,0,.1,0h-.26s.14,0,.15,0" transform="translate(0 0)"/><path id="Path_82" data-name="Path 82" class="cls-1" d="M103,90.34c-.06,0-.08,0-.1,0s.1,0,.1,0" transform="translate(0 0)"/><path id="Path_83" data-name="Path 83" class="cls-1" d="M106.91,90.32c-.13,0-.1,0,0,0" transform="translate(0 0)"/><path id="Path_84" data-name="Path 84" class="cls-1" d="M109.83,90.31h-.05s.15,0,.05,0" transform="translate(0 0)"/><path id="Path_85" data-name="Path 85" class="cls-1" d="M109.8,90.25s.07,0,.1,0,0,0,0,0Z" transform="translate(0 0)"/><path id="Path_86" data-name="Path 86" class="cls-1" d="M107.17,90.24h-.05s0,0,0,0h.08Z" transform="translate(0 0)"/><path id="Path_87" data-name="Path 87" class="cls-1" d="M109.18,90.24h-.05s.12,0,.05,0" transform="translate(0 0)"/><path id="Path_88" data-name="Path 88" class="cls-1" d="M108.8,90.22s-.09,0-.1,0,0,0,.1,0" transform="translate(0 0)"/><path id="Path_89" data-name="Path 89" class="cls-1" d="M109.36,90.22h.05s-.09,0-.08,0h0" transform="translate(0 0)"/><path id="Path_90" data-name="Path 90" class="cls-1" d="M109.57,90.23h-.08s.09,0,.08,0" transform="translate(0 0)"/><path id="Path_91" data-name="Path 91" class="cls-1" d="M111.63,90.23h-.08s.1,0,.08,0" transform="translate(0 0)"/><path id="Path_92" data-name="Path 92" class="cls-1" d="M103.1,90.17s-.09,0-.08,0h.08Z" transform="translate(0 0)"/><path id="Path_93" data-name="Path 93" class="cls-1" d="M101,90.15c.07,0-.12,0,0,0" transform="translate(0 0)"/><path id="Path_94" data-name="Path 94" class="cls-1" d="M109.34,90.05s0,0,.1,0,.06,0,0,0l-.26,0c.06,0,0,0,.13,0" transform="translate(0 0)"/><path id="Path_95" data-name="Path 95" class="cls-1" d="M105.91,90H106v0h-.05s0,0,0,0" transform="translate(0 0)"/><path id="Path_96" data-name="Path 96" class="cls-1" d="M113.33,90h.05s-.09,0-.08,0h0" transform="translate(0 0)"/><path id="Path_97" data-name="Path 97" class="cls-1" d="M113.41,90c.09,0,.25,0,.31,0s-.14,0-.28,0c0,0-.09,0,0,0" transform="translate(0 0)"/><path id="Path_98" data-name="Path 98" class="cls-1" d="M106,90s.12,0,.08,0-.15,0-.08,0" transform="translate(0 0)"/><path id="Path_99" data-name="Path 99" class="cls-1" d="M109.85,89.93c.06,0,.16,0,.15,0s-.17,0-.15,0" transform="translate(0 0)"/><path id="Path_100" data-name="Path 100" class="cls-1" d="M117.23,89.91s-.13,0-.1,0,.1,0,.1,0" transform="translate(0 0)"/><path id="Path_101" data-name="Path 101" class="cls-1" d="M117.52,89.91c-.06,0-.08,0-.08,0s0,0,.08,0" transform="translate(0 0)"/><rect id="Rectangle_5" data-name="Rectangle 5" class="cls-1" x="118.05" y="89.9" width="0.08" height="0.01"/><path id="Path_102" data-name="Path 102" class="cls-1" d="M112.2,89.73c.11,0,.47,0,.44,0s0,0-.1,0-.25,0-.36,0c.07,0,0,0,0,0" transform="translate(0 0)"/><path id="Path_103" data-name="Path 103" class="cls-1" d="M112,89.73c.1,0,.13,0,0,0" transform="translate(0 0)"/><path id="Path_104" data-name="Path 104" class="cls-1" d="M115.22,89.7a.26.26,0,0,1-.13,0,.28.28,0,0,1,.13,0" transform="translate(0 0)"/><path id="Path_105" data-name="Path 105" class="cls-1" d="M127.13,89.7h-.28a.46.46,0,0,1,.28,0" transform="translate(0 0)"/><path id="Path_106" data-name="Path 106" class="cls-1" d="M119.24,89.64c-.09,0-.08,0-.13,0s0,0-.05,0,.22,0,.18,0" transform="translate(0 0)"/><path id="Path_107" data-name="Path 107" class="cls-1" d="M121.38,89.51s.11,0,.1,0l-.15,0h-.15s.12,0,.13,0h0a.59.59,0,0,1-.23,0l.33,0" transform="translate(0 0)"/><path id="Path_108" data-name="Path 108" class="cls-1" d="M120.81,89.52s.07,0,.1,0-.08,0-.15,0,0,0-.05,0-.05,0-.05,0l.15,0" transform="translate(0 0)"/><path id="Path_109" data-name="Path 109" class="cls-1" d="M119.76,89.52s.17,0,.21,0-.09,0,0,0h-.15c.05,0-.11,0,0,0" transform="translate(0 0)"/><path id="Path_110" data-name="Path 110" class="cls-1" d="M122.21,89.5h.13s-.07,0-.13,0,0,0,0,0" transform="translate(0 0)"/><path id="Path_111" data-name="Path 111" class="cls-1" d="M114,89.52h.08s-.09,0-.08,0" transform="translate(0 0)"/><path id="Path_112" data-name="Path 112" class="cls-1" d="M116.3,89.46s0,0-.08,0,0,0,.08,0" transform="translate(0 0)"/><path id="Path_113" data-name="Path 113" class="cls-1" d="M117,89.45v0c.08,0,.08,0,0,0" transform="translate(0 0)"/><path id="Path_114" data-name="Path 114" class="cls-1" d="M124.84,89.45h-.1s.1,0,.1,0" transform="translate(0 0)"/><path id="Path_115" data-name="Path 115" class="cls-1" d="M128.81,89.36c.14,0,.36,0,.31,0h-.28c-.06.07-.36,0-.44,0a2.13,2.13,0,0,1,.41,0" transform="translate(0 0)"/><path id="Path_116" data-name="Path 116" class="cls-1" d="M117.82,89.31s0,0,0,0,0,0,0,0" transform="translate(0 0)"/><path id="Path_117" data-name="Path 117" class="cls-1" d="M121.82,89.28a2.46,2.46,0,0,1,.39,0,1.23,1.23,0,0,1-.39,0" transform="translate(0 0)"/><path id="Path_118" data-name="Path 118" class="cls-1" d="M120.66,89.29s.09,0,.08,0h-.08" transform="translate(0 0)"/><path id="Path_119" data-name="Path 119" class="cls-1" d="M124.35,89.29c-.06,0-.22,0-.21,0h.44s-.18,0-.23,0" transform="translate(0 0)"/><path id="Path_120" data-name="Path 120" class="cls-1" d="M124,89.27h.1s0,0,0,0-.07,0-.08,0" transform="translate(0 0)"/><path id="Path_121" data-name="Path 121" class="cls-1" d="M123.75,89.27l.15,0h-.15Z" transform="translate(0 0)"/><path id="Path_122" data-name="Path 122" class="cls-1" d="M131.13,89.25h.05s0,0-.05,0" transform="translate(0 0)"/><path id="Path_123" data-name="Path 123" class="cls-1" d="M132.42,89.24h-.08s.09,0,.08,0" transform="translate(0 0)"/><path id="Path_124" data-name="Path 124" class="cls-1" d="M120.76,89.22c.06,0,.1,0,.1,0s-.1,0-.1,0" transform="translate(0 0)"/><path id="Path_125" data-name="Path 125" class="cls-1" d="M121,89.23s0,0,.05,0l.1,0s-.13,0-.15,0" transform="translate(0 0)"/><path id="Path_126" data-name="Path 126" class="cls-1" d="M122.34,89.22s.1,0,.1,0h-.1" transform="translate(0 0)"/><path id="Path_127" data-name="Path 127" class="cls-1" d="M125.69,89.22s0,0,0-.06.21,0,.13,0-.06,0-.1,0" transform="translate(0 0)"/><path id="Path_128" data-name="Path 128" class="cls-1" d="M125.35,89.22s-.08,0-.05,0h.08s0,0,0,0" transform="translate(0 0)"/><path id="Path_129" data-name="Path 129" class="cls-1" d="M125.46,89.19l-.1,0a.12.12,0,0,1,.1,0" transform="translate(0 0)"/><path id="Path_130" data-name="Path 130" class="cls-1" d="M120.19,89.17h0" transform="translate(0 0)"/><path id="Path_131" data-name="Path 131" class="cls-1" d="M135.75,89.14c-.23,0-.09,0-.33,0l-.13,0c.15,0,.31,0,.44,0s0,0,0,0" transform="translate(0 0)"/><path id="Path_132" data-name="Path 132" class="cls-1" d="M122.05,89.16a.38.38,0,0,1-.1,0s0,0,0,0,.06,0,.1,0" transform="translate(0 0)"/><path id="Path_133" data-name="Path 133" class="cls-1" d="M127.91,89.13h.1s0,0-.05,0l-.05,0" transform="translate(0 0)"/><path id="Path_134" data-name="Path 134" class="cls-1" d="M136.19,89.13h-.05s-.07,0-.08,0h.13" transform="translate(0 0)"/><path id="Path_135" data-name="Path 135" class="cls-1" d="M127.8,89.13h-.13s.11,0,.13,0" transform="translate(0 0)"/><path id="Path_136" data-name="Path 136" class="cls-1" d="M129.22,89.11s0,0-.13,0,.05,0,.13,0" transform="translate(0 0)"/><path id="Path_137" data-name="Path 137" class="cls-1" d="M129.69,89.13h-.18s.17,0,.18,0" transform="translate(0 0)"/><path id="Path_138" data-name="Path 138" class="cls-1" d="M129.89,89.12s-.12,0-.13,0,.12,0,.13,0" transform="translate(0 0)"/><path id="Path_139" data-name="Path 139" class="cls-1" d="M130.31,89.1s0,0-.05,0-.26,0-.26,0h.31" transform="translate(0 0)"/><path id="Path_140" data-name="Path 140" class="cls-1" d="M130.43,89.12s-.1,0-.1,0h.1" transform="translate(0 0)"/><path id="Path_141" data-name="Path 141" class="cls-1" d="M130.54,89.12h-.08s.09,0,.08,0" transform="translate(0 0)"/><path id="Path_142" data-name="Path 142" class="cls-1" d="M131.13,89.11h-.44c-.07-.08.31,0,.44,0" transform="translate(0 0)"/><path id="Path_143" data-name="Path 143" class="cls-1" d="M133.61,89.12a1,1,0,0,0-.28,0,1.89,1.89,0,0,0-.39,0,1.29,1.29,0,0,1,.44,0,1.1,1.1,0,0,1,.36,0h-.13s0,0,0,0" transform="translate(0 0)"/><path id="Path_144" data-name="Path 144" class="cls-1" d="M132.52,89.08v0l-.1,0h.1" transform="translate(0 0)"/><path id="Path_145" data-name="Path 145" class="cls-1" d="M132.73,89.09v0c-.06,0-.1,0-.1,0h.1" transform="translate(0 0)"/><path id="Path_146" data-name="Path 146" class="cls-1" d="M132.91,89.09s-.12,0-.1,0Z" transform="translate(0 0)"/><path id="Path_147" data-name="Path 147" class="cls-1" d="M133.76,89.08h.15s0,0,0,0-.14,0-.13,0" transform="translate(0 0)"/><path id="Path_148" data-name="Path 148" class="cls-1" d="M136.91,89h.33a1.77,1.77,0,0,1,.44,0s-.18,0-.23,0a2.37,2.37,0,0,1-.59,0s.06,0,.05,0" transform="translate(0 0)"/><path id="Path_149" data-name="Path 149" class="cls-1" d="M136.24,89s0,0,0,0h-.05s0,0,0,0Z" transform="translate(0 0)"/><path id="Path_150" data-name="Path 150" class="cls-1" d="M135.49,88.92a.75.75,0,0,1-.31,0s0,0,0,0,.29,0,.33,0" transform="translate(0 0)"/><path id="Path_151" data-name="Path 151" class="cls-1" d="M133.81,88.85a5.27,5.27,0,0,1,1-.08s.12,0,.08.06l-.49,0c-.18,0-.34,0-.54,0" transform="translate(0 0)"/><path id="Path_152" data-name="Path 152" class="cls-1" d="M135.7,88.76s-.09,0-.13,0,.09,0,.13,0" transform="translate(0 0)"/><path id="Path_153" data-name="Path 153" class="cls-1" d="M131.08,88.72c-.06,0-.13,0-.13,0s.15,0,.13,0" transform="translate(0 0)"/><path id="Path_154" data-name="Path 154" class="cls-1" d="M133,88.72s.07,0,.08,0,0,0-.08,0" transform="translate(0 0)"/><path id="Path_155" data-name="Path 155" class="cls-1" d="M135.57,88.58l.05,0c-.06,0-.16,0-.18,0s0,0,.13,0" transform="translate(0 0)"/><path id="Path_156" data-name="Path 156" class="cls-1" d="M137.37,88.42h.18s-.17,0-.18,0" transform="translate(0 0)"/><path id="Path_157" data-name="Path 157" class="cls-1" d="M138.43,88.44h-.05s0,0,0,0h.05s0,0,0,0" transform="translate(0 0)"/><path id="Path_158" data-name="Path 158" class="cls-1" d="M137.58,88.4s.13,0,.13,0h-.08l-.05,0" transform="translate(0 0)"/><path id="Path_159" data-name="Path 159" class="cls-1" d="M134.2,88.38h-.08s.09,0,.08,0" transform="translate(0 0)"/><path id="Path_160" data-name="Path 160" class="cls-1" d="M135.46,88.27s0,0,0,0-.06,0,0,0" transform="translate(0 0)"/><path id="Path_161" data-name="Path 161" class="cls-1" d="M135.26,88.3c-.09,0,.15,0,0,0" transform="translate(0 0)"/><path id="Path_162" data-name="Path 162" class="cls-1" d="M136.83,88.29s0,0,0,0h0" transform="translate(0 0)"/><path id="Path_163" data-name="Path 163" class="cls-1" d="M137.53,88.26s.12,0,0,0" transform="translate(0 0)"/><path id="Path_164" data-name="Path 164" class="cls-1" d="M137.84,88.19l-.18.06s-.25,0-.26-.07l.08,0a1.05,1.05,0,0,1,.36,0" transform="translate(0 0)"/><path id="Path_165" data-name="Path 165" class="cls-1" d="M139.41,88.24h.05s0,0-.05,0" transform="translate(0 0)"/><path id="Path_166" data-name="Path 166" class="cls-1" d="M139.49,88.2s-.17,0-.21,0h0c-.07,0-.12,0-.1,0h.28" transform="translate(0 0)"/><path id="Path_167" data-name="Path 167" class="cls-1" d="M141.37,88.2a.22.22,0,0,1-.13,0s.11,0,.13,0" transform="translate(0 0)"/><path id="Path_168" data-name="Path 168" class="cls-1" d="M137.22,88.09h-.05v0Z" transform="translate(0 0)"/><path id="Path_169" data-name="Path 169" class="cls-1" d="M141,88s-.1,0-.08,0,.27.08.08.1c0,0-.1,0-.15,0s0-.13.15-.1" transform="translate(0 0)"/><path id="Path_170" data-name="Path 170" class="cls-1" d="M139.44,87.91a1.29,1.29,0,0,1,.39,0s0,0,.08,0,0,0,.08,0l.1,0,.54,0v0a.56.56,0,0,1-.26,0s-.13,0-.21,0-.07,0-.05,0a4.93,4.93,0,0,0-.64,0s0,0,0-.07" transform="translate(0 0)"/><path id="Path_171" data-name="Path 171" class="cls-1" d="M139.36,88h-.08s.09,0,.08,0" transform="translate(0 0)"/><path id="Path_172" data-name="Path 172" class="cls-1" d="M142.48,87.83s.17,0,.15,0-.35,0-.15,0" transform="translate(0 0)"/><path id="Path_173" data-name="Path 173" class="cls-1" d="M143.67,87.88h-.05s0,0,0,0h.05s0,0,0,0" transform="translate(0 0)"/><path id="Path_174" data-name="Path 174" class="cls-1" d="M141,87.79a.05.05,0,0,1,0,.06c-.13,0-.19,0-.31,0s.06,0,.08,0a.66.66,0,0,0,.21,0" transform="translate(0 0)"/><path id="Path_175" data-name="Path 175" class="cls-1" d="M142.53,87.63l.05,0h-.15s.06,0,.1,0" transform="translate(0 0)"/><path id="Path_176" data-name="Path 176" class="cls-1" d="M142.3,87.65a.87.87,0,0,1-.23,0,.64.64,0,0,1,.23,0" transform="translate(0 0)"/><path id="Path_177" data-name="Path 177" class="cls-1" d="M139.72,87.5a.46.46,0,0,1,.18,0s0,0,.08,0h.33c-.06.07-.39,0-.64.05.06,0-.17,0-.18-.05s.15,0,.23,0" transform="translate(0 0)"/><path id="Path_178" data-name="Path 178" class="cls-1" d="M142.61,87.57s0,0,.13,0-.09,0-.13,0" transform="translate(0 0)"/><path id="Path_179" data-name="Path 179" class="cls-1" d="M139.1,87.33s-.12,0-.08,0h.46s0,0,0,0a.47.47,0,0,1-.28,0h-.1s0,0,0,0" transform="translate(0 0)"/><path id="Path_180" data-name="Path 180" class="cls-1" d="M138.27,87.33a2.51,2.51,0,0,1-.52,0,1.54,1.54,0,0,1,.72,0,.72.72,0,0,1-.21,0" transform="translate(0 0)"/><path id="Path_181" data-name="Path 181" class="cls-1" d="M137.68,87.33h-.08s0,0,.05,0,0,0,0,0" transform="translate(0 0)"/><rect id="Rectangle_6" data-name="Rectangle 6" class="cls-1" x="138.79" y="87.31" width="0.08" height="0.01"/><path id="Path_182" data-name="Path 182" class="cls-1" d="M137.6,87.26l.05,0c-.07,0-.15,0-.05,0" transform="translate(0 0)"/><path id="Path_183" data-name="Path 183" class="cls-1" d="M136.7,87.25v0c.08,0,.08,0,0,0" transform="translate(0 0)"/><path id="Path_184" data-name="Path 184" class="cls-1" d="M141,87.05h.13s-.07,0-.1,0h.05c-.07,0-.09,0-.08,0" transform="translate(0 0)"/><path id="Path_185" data-name="Path 185" class="cls-1" d="M142.12,87c-.09,0-.09,0-.05,0-.23,0-.21-.06-.39-.07a.41.41,0,0,0,.18,0s.23,0,.26.07" transform="translate(0 0)"/><path id="Path_186" data-name="Path 186" class="cls-1" d="M140.18,86.93c.06,0,0,0,.05,0a1,1,0,0,1,.26,0,1,1,0,0,1-.31,0" transform="translate(0 0)"/><path id="Path_187" data-name="Path 187" class="cls-1" d="M141.81,86.93s-.11,0-.13,0,.17,0,.13,0" transform="translate(0 0)"/><path id="Path_188" data-name="Path 188" class="cls-1" d="M143.38,86.92h.08s-.07,0-.08,0" transform="translate(0 0)"/><path id="Path_189" data-name="Path 189" class="cls-1" d="M142,86.88s0,0,0,0-.09,0,0,0" transform="translate(0 0)"/><path id="Path_190" data-name="Path 190" class="cls-1" d="M142.12,86.9H142v0c.06,0,.13,0,.13,0" transform="translate(0 0)"/><path id="Path_191" data-name="Path 191" class="cls-1" d="M140.29,86.87h-.15a.32.32,0,0,1,.15,0" transform="translate(0 0)"/><path id="Path_192" data-name="Path 192" class="cls-1" d="M139.77,86.85h-.18s.18,0,.18,0" transform="translate(0 0)"/><path id="Path_193" data-name="Path 193" class="cls-1" d="M140.65,86.83h-.1v0c.09,0,.14,0,.1,0" transform="translate(0 0)"/><path id="Path_194" data-name="Path 194" class="cls-1" d="M142.43,86.78s-.12,0-.13,0,.12,0,.13,0" transform="translate(0 0)"/><path id="Path_195" data-name="Path 195" class="cls-1" d="M140.47,86.74a2.41,2.41,0,0,0-.52,0s-.06,0-.15,0,.1,0,.15,0,.55,0,.52.06" transform="translate(0 0)"/><path id="Path_196" data-name="Path 196" class="cls-1" d="M140.72,86.72s0,0,0,0h-.15s.07,0,.15,0" transform="translate(0 0)"/><path id="Path_197" data-name="Path 197" class="cls-1" d="M140.78,86.64s0,0-.1,0,0,0,.1,0" transform="translate(0 0)"/><path id="Path_198" data-name="Path 198" class="cls-1" d="M141,86.64s0,0,0,0-.12,0-.13,0,.07,0,.15,0" transform="translate(0 0)"/><path id="Path_199" data-name="Path 199" class="cls-1" d="M86.74,90.75s-.2,0-.26,0,0,0,0,0,.15,0,.28,0" transform="translate(0 0)"/><path id="Path_200" data-name="Path 200" class="cls-1" d="M87,90.68a2.49,2.49,0,0,1-.41,0h.26s0,0,0,0a.34.34,0,0,1,.18,0" transform="translate(0 0)"/><path id="Path_201" data-name="Path 201" class="cls-1" d="M102.19,90.13s.15,0,.15,0l-.28,0c.08,0,0,0,.05,0,.16,0,0,0,.08,0" transform="translate(0 0)"/><path id="Path_202" data-name="Path 202" class="cls-1" d="M109.18,90.07s-.21,0-.13,0,.11,0,.13,0" transform="translate(0 0)"/><path id="Path_203" data-name="Path 203" class="cls-1" d="M109.26,90s.11,0,.13,0h-.13" transform="translate(0 0)"/><path id="Path_204" data-name="Path 204" class="cls-1" d="M116.95,89.9l-.1,0h.05c-.1,0-.07,0-.05,0s.1,0,.1,0" transform="translate(0 0)"/><path id="Path_205" data-name="Path 205" class="cls-1" d="M118,89.89s0,0,0,0,0,0,0,0,0,0,0,0" transform="translate(0 0)"/><path id="Path_206" data-name="Path 206" class="cls-1" d="M121.69,89.59s-.09,0,0,0c-.12,0-.14,0-.1,0s-.06,0-.05,0,.05,0,.18,0" transform="translate(0 0)"/><path id="Path_207" data-name="Path 207" class="cls-1" d="M123.83,89.35a.92.92,0,0,1,.26,0c.22,0,.43,0,.62,0,0,0,0,0-.05-.05s.24,0,.36,0,.24,0,.31,0a1.53,1.53,0,0,1,.41,0s.09,0,.13,0l.13,0s0,0,.1,0,.06,0,.05,0H126s0,0-.05,0-.21,0-.23,0a4.33,4.33,0,0,1-.59,0l-.15,0c.08,0,.1,0,.15,0s0,0-.1.06a.68.68,0,0,0-.34,0h-.26s.11,0,.1,0c.14-.07-.4-.09-.21,0H124c-.07,0-.25,0-.26,0s.09,0,.13-.05" transform="translate(0 0)"/><path id="Path_208" data-name="Path 208" class="cls-1" d="M120.89,89.24s0,0,.08,0,0,0,0,0,0,0-.08,0" transform="translate(0 0)"/><path id="Path_209" data-name="Path 209" class="cls-1" d="M127,89.13c.07,0,.19,0,.26,0l-.23,0s-.1,0,0,0" transform="translate(0 0)"/><path id="Path_210" data-name="Path 210" class="cls-1" d="M135.93,89.05a.87.87,0,0,1-.41,0c-.06,0-.06,0-.1,0l-.1,0-.1,0s-.27,0-.21,0a4.65,4.65,0,0,1,.93,0" transform="translate(0 0)"/><path id="Path_211" data-name="Path 211" class="cls-1" d="M136.73,89s-.09,0-.1,0h.1" transform="translate(0 0)"/><path id="Path_212" data-name="Path 212" class="cls-1" d="M138,88.41a.61.61,0,0,1,.23,0h-.15s0,0-.08,0,0,0,0,0-.12,0-.08,0,.12,0,.1,0" transform="translate(0 0)"/><path id="Path_213" data-name="Path 213" class="cls-1" d="M137.58,88.33s-.17,0-.1,0,.22,0,.28,0,.05,0,.05,0a.47.47,0,0,1,.18,0l-.13.05a.7.7,0,0,0-.26,0s-.1,0,0-.05" transform="translate(0 0)"/><path id="Path_214" data-name="Path 214" class="cls-1" d="M140,88.08l.1,0a1.42,1.42,0,0,1,.31,0c-.09,0,0,0-.05,0s-.4,0-.59,0l0,0a1.1,1.1,0,0,1,.26,0" transform="translate(0 0)"/><path id="Path_215" data-name="Path 215" class="cls-1" d="M141.32,87.82h.44c-.13,0-.16,0-.15,0a.84.84,0,0,1-.28,0" transform="translate(0 0)"/><path id="Path_216" data-name="Path 216" class="cls-1" d="M142.84,87.68c-.14,0,0,0,0,0s0,0,0,0" transform="translate(0 0)"/><path id="Path_217" data-name="Path 217" class="cls-1" d="M140.75,86.9h0Zm.15,0s0,0-.05,0,.16,0,.05,0-.19,0-.08,0c-.09,0-.29,0-.21,0-.07,0-.19,0-.08,0s0,0,0,0,.19,0,.18,0h-.05s-.11,0-.13,0-.07,0,0,0,.13,0,.08,0a.87.87,0,0,1,.23,0" transform="translate(0 0)"/><path id="Path_218" data-name="Path 218" class="cls-1" d="M139.56,86.71c-.09,0-.21,0-.31,0s0,0,.1,0,.2,0,.21,0" transform="translate(0 0)"/><path id="Path_219" data-name="Path 219" class="cls-1" d="M139.51,86.64s0,0,.1,0,.32,0,.34.05h-.31s0,0-.1,0,0,0-.08,0h0a.48.48,0,0,0,.18,0h-.1" transform="translate(0 0)"/><path id="Path_220" data-name="Path 220" class="cls-1" d="M80.89,90.84h-.41a.85.85,0,0,1,.41,0" transform="translate(0 0)"/><path id="Path_221" data-name="Path 221" class="cls-1" d="M102.07,90.33a.88.88,0,0,1,.28,0h.28s-.2,0-.28,0-.26,0-.39,0,0,0,0,0a1.19,1.19,0,0,0-.28,0s-.12,0-.08-.05a2.15,2.15,0,0,1,.44,0" transform="translate(0 0)"/><path id="Path_222" data-name="Path 222" class="cls-1" d="M110.45,90.23h-.39a.56.56,0,0,1,.39,0" transform="translate(0 0)"/><path id="Path_223" data-name="Path 223" class="cls-1" d="M108.54,90c-.19,0-.35,0-.49,0s0,0-.05,0h.18s0,0,.05,0,0,0,.08,0c.21,0,.41,0,.57,0h-.26l-.08,0" transform="translate(0 0)"/><path id="Path_224" data-name="Path 224" class="cls-1" d="M120.43,89.54s.21,0,.18,0-.12,0-.21,0a.92.92,0,0,1-.39,0,1.76,1.76,0,0,1,.41,0" transform="translate(0 0)"/><path id="Path_225" data-name="Path 225" class="cls-1" d="M118.57,89.55a1.76,1.76,0,0,1-.36,0h.23s.2,0,.13,0" transform="translate(0 0)"/><path id="Path_226" data-name="Path 226" class="cls-1" d="M119.14,89.53s0,0,0,0,0,0-.13,0,0,0-.05,0-.25,0-.33,0a2.35,2.35,0,0,1,.52,0" transform="translate(0 0)"/><path id="Path_227" data-name="Path 227" class="cls-1" d="M117.3,89.45s.12,0,.23,0,0,0,0,0,.14,0,.21,0l-.13,0h.21s.09,0,.13,0,.2,0,.23,0,0,0,.05,0,0,0,.13,0,0,0,0,0,.08,0,.15,0,0,0,.08-.07a5.72,5.72,0,0,0,.88,0s.07,0,.05,0-.11,0-.13,0c-.37,0-.78.07-1.06,0l-.1,0a7.2,7.2,0,0,0-.9,0" transform="translate(0 0)"/><path id="Path_228" data-name="Path 228" class="cls-1" d="M119.94,89.41s.2,0,.21,0,0,0,.08,0l.05,0a2.45,2.45,0,0,0,.44,0,2.85,2.85,0,0,1,.39.05,1.36,1.36,0,0,1,.44,0c0,.07.17.05.36.06,0,0,.08,0,.08,0h.54c.07,0,.38,0,.41,0-.23,0-.23,0-.49,0,0,0-.09,0-.13,0h.33s.12,0,.13,0-.11,0-.05,0,.05,0,.13,0a2.44,2.44,0,0,1,.72,0l.18,0s.13,0,.1,0h-.18s-.09,0-.08,0,.13,0,.1,0l-.13,0a.7.7,0,0,0-.21,0s.1,0,.1,0l-.1,0c-.14,0-.36,0-.54,0l-.21,0-.1,0h0l.05,0a.81.81,0,0,0-.28,0,1.53,1.53,0,0,0-.34,0,1.43,1.43,0,0,0-.41,0h-.08s.11,0,0,0l-.15,0s-.06,0-.1,0,0,0,0,0a2.76,2.76,0,0,1-.54,0c-.24,0-.38,0-.57,0,0,0-.15,0-.13,0" transform="translate(0 0)"/><path id="Path_229" data-name="Path 229" class="cls-1" d="M125.59,89.36c0-.07.28,0,.33-.05s.19.06.23.1l.23-.07c.1,0,.18,0,.15,0s-.12,0-.13,0c.55,0,.87,0,1.39,0,.08,0,0,0,.13,0s0,.08.05.11a2,2,0,0,1-.46,0s.1,0,.08-.06h-.15c-.08,0-.16,0-.31,0l-.13,0c.06,0,.21,0,.26,0l-.31,0a1.24,1.24,0,0,0-.39,0s.13,0,.05.06a2.44,2.44,0,0,0-.54,0c-.08,0-.06,0-.15,0s-.57.06-.46,0c-.11,0,.05,0,.08,0s0,0,.05,0" transform="translate(0 0)"/><path id="Path_230" data-name="Path 230" class="cls-1" d="M132.88,89.15h.31s0,0,.1,0l.26-.05c.18,0,.33,0,.26.07s-.23,0-.31,0,0,0-.05,0h-.13a.45.45,0,0,0-.18,0,.46.46,0,0,1-.26,0s0,0,0-.07" transform="translate(0 0)"/><path id="Path_231" data-name="Path 231" class="cls-1" d="M136.37,88.34a1.32,1.32,0,0,1,.28,0l.31,0s.06,0,.1.06,0,0,0,0-.07,0-.15,0-.32,0-.52,0c0,0-.06,0,0,0" transform="translate(0 0)"/><path id="Path_232" data-name="Path 232" class="cls-1" d="M138.09,88.33c.09,0,0,0,0,0h-.21s0,0,.13,0-.07,0,0,0a3.08,3.08,0,0,1,.46,0s0,0,0,0-.2,0-.36,0" transform="translate(0 0)"/><path id="Path_233" data-name="Path 233" class="cls-1" d="M142,87.88c-.11,0-.23,0-.28,0,.14,0,.29,0,.28,0" transform="translate(0 0)"/><path id="Path_234" data-name="Path 234" class="cls-1" d="M144.26,105.14a.54.54,0,1,0,.54-.54.55.55,0,0,0-.54.54m-6-2.41h2.12a2.27,2.27,0,0,1-.29,1,2.49,2.49,0,0,1-2.19,1.2,3,3,0,0,1,0-5.9,2.63,2.63,0,0,1,1.74.6,3.78,3.78,0,0,1,.68.74l.59-.54a4.37,4.37,0,0,0-.83-.85,3.56,3.56,0,0,0-2.19-.71,3.7,3.7,0,0,0,0,7.4,3.21,3.21,0,0,0,2.66-1.29,3.94,3.94,0,0,0,.69-2.26V102h-3Zm-12.93,2.84V100l5.58,5.85V98.42h-.79V104l-5.58-5.85v7.45Zm-5.26,0h.79V98.42h-.79Zm-8.62-7.15,2.9,7.58,2.9-7.58h-.88l-2,5.46-2-5.46Zm-3.62,7.15h.79V98.42h-.79Zm-5.66-7.15v7.15H105v-.75h-2v-6.4Zm-4.45,6.73a.54.54,0,1,0,.54-.54.55.55,0,0,0-.54.54m-4.92.43h.79v-3.08L96,98.42h-.92l-1.85,3.2-1.82-3.2h-.92l2.35,4.08Zm-7.59-6.4h.48a2,2,0,0,1,1,.2,1.11,1.11,0,0,1,.57,1.05c0,.84-.59,1.31-1.58,1.31h-.5Zm-.79-.75v7.15h.79v-3.14h.2l2.18,3.13h1l-2.27-3.2a2,2,0,0,0,1-3.56,3.14,3.14,0,0,0-1.74-.4Zm-8,0h-.79V103a2.55,2.55,0,1,0,5.08,0v-4.6H80v4.39a2,2,0,0,1-.57,1.74,1.91,1.91,0,0,1-2.36,0,2,2,0,0,1-.57-1.74Zm-8.79,7.15h.9l1.66-2.94,1.64,2.94h.9l-2.07-3.7,2-3.45h-.9l-1.52,2.69-1.48-2.69h-.9l1.92,3.45Zm-7.19-7.15h-.79V103a2.55,2.55,0,1,0,5.08,0v-4.6H64v4.39a2,2,0,0,1-.57,1.74,1.91,1.91,0,0,1-2.36,0,2,2,0,0,1-.57-1.74Zm-6.46,0v7.15H56.8v-.75h-2v-6.4Z" transform="translate(0 0)"/><path id="Path_235" data-name="Path 235" class="cls-1" d="M101.42,17.79a1,1,0,0,0-.3-.14.44.44,0,0,0-.27,0q-.11,0-.11.24a12.43,12.43,0,0,0-1.31.18,12.47,12.47,0,0,1-1.31.19l.06-.46q.17-1.34.36-2.65t.38-2.65a2.35,2.35,0,0,0,0-.51,1,1,0,0,0-.16-.46.59.59,0,0,0-.38-.26,6.51,6.51,0,0,0-1-.2,3.12,3.12,0,0,0-1.1.09q-.14.4-.27.81t-.24.81a1.45,1.45,0,0,0-.06.4,2.9,2.9,0,0,1-.17.83,2.29,2.29,0,0,0-.4,1.77.88.88,0,0,1,0,.37,5.75,5.75,0,0,0-.13.9q-.07.73-.13,1.64a.94.94,0,0,0-.23.06l-.9.2-.93.23a2.12,2.12,0,0,1-.4,0H91.8a3.07,3.07,0,0,0-.53,0,.66.66,0,0,0-.36.16c-.11.1-.15.19-.11.27a.54.54,0,0,0,.21.23,1.38,1.38,0,0,0,.34.16,1.06,1.06,0,0,0,.3.06,12,12,0,0,0,1.44,0l1.47,0h.11q-.06.4-.09.74a5.59,5.59,0,0,1-.09.63,25.9,25.9,0,0,0-.24,2.81l-.07,2.3q0,.66,0,1.35a12.78,12.78,0,0,1,0,1.35,3.93,3.93,0,0,0,0,1.3,6.39,6.39,0,0,0,.38,1.21l.11.33.18.5.19.47a.6.6,0,0,0,.17.27,1,1,0,0,0,.84.14,2.54,2.54,0,0,0,.86-.41,3.89,3.89,0,0,0,.76-.73,5.6,5.6,0,0,0,.57-.86,3.46,3.46,0,0,0,.46-.79,7.56,7.56,0,0,0,.29-.81q.11-.43.2-.88a3.8,3.8,0,0,1-1,1.13q-.61.5-1.24,1.07a1.21,1.21,0,0,1-.23.27l-.31.3A4.74,4.74,0,0,1,96,29.65q.06-.57.16-1.17t.18-1.17a.66.66,0,0,0,0-.43,1.86,1.86,0,0,1,0-.77q.06-.54.19-1.18t.29-1.31q.16-.67.3-1.18t.38-1.3q.19-.64.36-1.3a.12.12,0,0,1,.09,0q.86-.17,1.8-.33a4.89,4.89,0,0,0,1.71-.61,2.55,2.55,0,0,0,.5-.4q.19-.2-.21-.51l-.23-.16m-9.57,14a1.27,1.27,0,0,1,0-.18q.06-.83.18-1.63a9.94,9.94,0,0,1,.38-1.57q.29-.86.11-1.13T91.43,27a.58.58,0,0,0-.21,0,.55.55,0,0,1-.21,0,.71.71,0,0,0-.8.34l-.74,1q-.37.5-.71,1T88,30.59q-.34.66-.74,1.31a.71.71,0,0,1-.17.21l-.31.27v-.83a11.56,11.56,0,0,1,.2-1.44,13.39,13.39,0,0,1,.37-1.41q.23-.71.5-1.37a7.25,7.25,0,0,1,.67-1.26,1.72,1.72,0,0,1,.46-.46q.23-.14,1.54.23a1.65,1.65,0,0,0,.53,0l.64-.11-.21-.34a.56.56,0,0,0-.16-.17,1.48,1.48,0,0,1-.51-.3,4.52,4.52,0,0,0-1.65-.36,6.42,6.42,0,0,0-.94,0,6.25,6.25,0,0,1-.94,0,.89.89,0,0,0-.86.43,5,5,0,0,0-.31.54l-.29.57q-.37.77-.76,1.6a11.45,11.45,0,0,0-.7,2.17,6.48,6.48,0,0,0-.1,1q0,.57,0,1.07t.07.86a2,2,0,0,0,.07.41,1.83,1.83,0,0,0,.8.77,3.22,3.22,0,0,0,1.06.29,3.36,3.36,0,0,0,1.2-.09q.48-.14.88-1,.17-.37.38-.74l.47-.8q.17.46.29.81a3.82,3.82,0,0,0,.29.67,1.56,1.56,0,0,0,.54.66A1.78,1.78,0,0,0,91,34a1.46,1.46,0,0,0,.77-.1,1.71,1.71,0,0,0,.67-.5q.23-.37.49-.76t.56-.87q.3-.49.61-1.11t.68-1.48a10.91,10.91,0,0,0-1.65,1.37A10.68,10.68,0,0,0,91.89,32q0-.14,0-.24m-10-17.56a1.7,1.7,0,0,0-.46.23A18.14,18.14,0,0,0,78.72,17q-1.18,1.38-1.87,2.32a1.56,1.56,0,0,1-.17.38l-.21.36a1,1,0,0,1-.28-.06v-.74a3.06,3.06,0,0,1,.1-.93q.13-.53.16-.76Q78.07,15.18,76,15a28.38,28.38,0,0,0-2.85-.14,3,3,0,0,1,.09.4,3,3,0,0,0,.09.4A33.65,33.65,0,0,1,74,19.07a21.79,21.79,0,0,1,.21,3.44q0,1.57,0,3.12t0,3.12q0,.91-.11,1.83a3.05,3.05,0,0,0,.26,1.63,1.85,1.85,0,0,0,.24.57l.44.63.34.29q.87,1.06.84-.63V31.62q0-.7.06-1.44L76.56,26a8.35,8.35,0,0,1,.46-2.4q.4-1.14.71-2.31.14-.49.3-.94t.36-.91a9.09,9.09,0,0,1,.94-1.63q.54-.74,1.14-1.48a6.89,6.89,0,0,1,.6-.59.6.6,0,0,1,.66-.13,1,1,0,0,1,.21.67,4.16,4.16,0,0,1-.24,1.07q-.4,1.11-.81,2.21T80,21.76a8.23,8.23,0,0,1-1.48,2.4l-2,2.31.5.36a1.84,1.84,0,0,0,.44.24,4,4,0,0,0,1.17.21,5.87,5.87,0,0,1,1.2.18,1.25,1.25,0,0,1,.77,2l-.51.68a17.61,17.61,0,0,1-2.67,2.27,8.17,8.17,0,0,0-2.44,2.41.62.62,0,0,0,.14.86l0,0a1.47,1.47,0,0,0,1.18.4,1.51,1.51,0,0,0,1-.71l.43-.47A9.66,9.66,0,0,1,79,34.09a19.83,19.83,0,0,0,2-1.24l.29-.3L83.39,30a.31.31,0,0,0,.09-.23,2.56,2.56,0,0,0-.06-.93A3,3,0,0,0,83,28a3.08,3.08,0,0,0-.63-.73,6.61,6.61,0,0,0-1.65-.8l-.38-.1-.36-.1-.94-.14q.31-.4.41-.5t.79-1.07L82,22.59a4.89,4.89,0,0,0,.93-1.18q.1-.3.47-1.84-.11.34.13-.49T84,17.42a5.26,5.26,0,0,0,.16-1.14A4.27,4.27,0,0,0,84,15.14,1.27,1.27,0,0,0,82.57,14l-.21,0-.49.14" transform="translate(0 0)"/></g></svg>