<svg xmlns="http://www.w3.org/2000/svg" width="106.919" height="30.463" viewBox="0 0 106.919 30.463">
  <g id="Group_693" data-name="Group 693" transform="translate(-1019 -10472.5)">
    <g id="Group_33" data-name="Group 33" transform="translate(1019 10472.5)">
      <rect id="Rectangle_59" data-name="Rectangle 59" width="37.413" height="2.941" transform="translate(69.505 19.376)" fill="#2e2e2d"/>
      <rect id="Rectangle_60" data-name="Rectangle 60" width="2.98" height="2.979" transform="translate(86.702 0)" fill="#ffa900"/>
      <rect id="Rectangle_61" data-name="Rectangle 61" width="2.979" height="2.979" transform="translate(86.702 4.392)" fill="#ffa900"/>
      <rect id="Rectangle_62" data-name="Rectangle 62" width="2.979" height="2.979" transform="translate(91.006 4.392)" fill="#ffa900"/>
      <rect id="Rectangle_63" data-name="Rectangle 63" width="2.98" height="2.979" transform="translate(82.398 4.392)" fill="#ffa900"/>
      <rect id="Rectangle_64" data-name="Rectangle 64" width="2.979" height="2.979" transform="translate(86.702 8.906)" fill="#ffa900"/>
      <rect id="Rectangle_65" data-name="Rectangle 65" width="2.979" height="2.979" transform="translate(91.006 8.906)" fill="#ffa900"/>
      <rect id="Rectangle_66" data-name="Rectangle 66" width="2.98" height="2.979" transform="translate(82.398 8.906)" fill="#ffa900"/>
      <rect id="Rectangle_67" data-name="Rectangle 67" width="2.979" height="2.979" transform="translate(95.31 8.906)" fill="#ffa900"/>
      <rect id="Rectangle_68" data-name="Rectangle 68" width="2.979" height="2.979" transform="translate(78.093 8.906)" fill="#ffa900"/>
      <rect id="Rectangle_69" data-name="Rectangle 69" width="2.979" height="2.979" transform="translate(86.702 13.47)" fill="#ffa900"/>
      <rect id="Rectangle_70" data-name="Rectangle 70" width="2.979" height="2.979" transform="translate(91.006 13.47)" fill="#ffa900"/>
      <rect id="Rectangle_71" data-name="Rectangle 71" width="2.98" height="2.979" transform="translate(82.398 13.47)" fill="#ffa900"/>
      <rect id="Rectangle_72" data-name="Rectangle 72" width="2.979" height="2.979" transform="translate(95.31 13.47)" fill="#ffa900"/>
      <rect id="Rectangle_73" data-name="Rectangle 73" width="2.979" height="2.979" transform="translate(78.093 13.47)" fill="#ffa900"/>
      <rect id="Rectangle_74" data-name="Rectangle 74" width="2.979" height="2.979" transform="translate(73.789 13.47)" fill="#ffa900"/>
      <rect id="Rectangle_75" data-name="Rectangle 75" width="2.98" height="2.979" transform="translate(99.614 13.47)" fill="#ffa900"/>
      <path id="Path_650" data-name="Path 650" d="M206.757,373.47a.727.727,0,0,1-.223.506h-2.9a.761.761,0,0,1,.253-.506h1.127a.471.471,0,0,0,.53-.536v-.94c0-.368-.175-.548-.53-.548h-1.157a.883.883,0,0,1-.211-.494h1.989a.859.859,0,0,1,.633.229.921.921,0,0,1,.235.675v.766a.761.761,0,0,1-.609.849Zm-10.391.506h-.946v-3.025h.946Zm-8.438-.427c0,.283-.1.427-.307.427h-1.627a.677.677,0,0,1,.2-.5h.723c.042,0,.06-.03.06-.09v-1.507a.438.438,0,0,0-.12-.307.368.368,0,0,0-.284-.126h-.235a.783.783,0,0,1-.151-.494h.693c.693,0,1.043.331,1.043,1Zm-9.227-.711a1.5,1.5,0,0,1-.506.084,1.1,1.1,0,0,1-.446-.084v-1.886h.952Zm-9.4.542v-1.5a.383.383,0,0,0-.434-.434h-.723c-.055,0-.079.03-.079.084v1.85c0,.06.03.091.084.091h1.079c.048,0,.072-.03.072-.091m.952.38a.19.19,0,0,1-.211.217H167.28a.186.186,0,0,1-.151-.048.3.3,0,0,1-.024-.151v-2.495a.413.413,0,0,1,.066-.271.4.4,0,0,1,.265-.06h1.736a1.248,1.248,0,0,1,.8.211.985.985,0,0,1,.278.8Zm-18.943.217h-1.133l-1.2-1.476a.325.325,0,0,0-.151.307v1.169h-.952v-.813c0-.464.283-.8.849-1.018l-.994-1.193H148.8l1.253,1.494a.317.317,0,0,0,.156-.307v-1.187h.953v.873c0,.477-.289.8-.862.965Zm-10.824-1.313c.006.072.012.138.012.2a1.02,1.02,0,0,1-.331.82,1.3,1.3,0,0,1-.9.3h-.934a.678.678,0,0,1,.283-.5h.307a.641.641,0,0,0,.446-.157.584.584,0,0,0,.163-.44v-.108l-.1-.868c-.036-.307-.187-.464-.458-.464h-.518L138,373.976h-.952l.488-2.537h-.319a.677.677,0,0,1-.224-.488h2.3a1.109,1.109,0,0,1,.82.271,1.254,1.254,0,0,1,.289.723Zm-10.831.175a1.492,1.492,0,0,1-.505.084,1.094,1.094,0,0,1-.446-.084v-1.886h.952Zm-8.444.711c0,.283-.1.427-.307.427h-1.627a.68.68,0,0,1,.205-.5h.723c.042,0,.061-.03.061-.09v-1.507a.437.437,0,0,0-.121-.307.366.366,0,0,0-.283-.126h-.235a.778.778,0,0,1-.151-.494h.693c.693,0,1.043.331,1.043,1Zm-9.228.427h-.946v-3.025h.946Zm-8.438,0H102.6v-2.043a.549.549,0,0,0-.121-.355.392.392,0,0,0-.314-.139h-.608v1.645a1.05,1.05,0,0,1-.163.65.75.75,0,0,1-.633.241h-.9a1.26,1.26,0,0,1,.186-.5h.278a.3.3,0,0,0,.2-.084.364.364,0,0,0,.084-.247v-1.705h-.428a.8.8,0,0,1-.217-.488H102.4a1.369,1.369,0,0,1,.838.211.956.956,0,0,1,.307.8Z" transform="translate(-99.863 -343.513)" fill="#2e2e2d"/>
      <path id="Path_651" data-name="Path 651" d="M296.678,233.917v14.347h-5.944V233.917h-5.868a5.2,5.2,0,0,1-1.14-1.013,5.381,5.381,0,0,1-.4-3.016h16.528s.217,2.747-.967,3.571a4.627,4.627,0,0,1-2.208.458" transform="translate(-252.732 -225.937)" fill="#2e2e2d"/>
      <path id="Path_652" data-name="Path 652" d="M400.082,248.5V237.331a8.558,8.558,0,0,0-.152-1.792,1.6,1.6,0,0,0-.519-.88,1.943,1.943,0,0,0-.947-.38,9.719,9.719,0,0,0-1.4-.086H396.6v7.485a25.979,25.979,0,0,1-.092,3.419c-.131.927-.19,2.125-.842,2.608a4.021,4.021,0,0,1-2.21.748c-.928.086-4.024.041-5.1.041h-.721a5.261,5.261,0,0,1,.418-2.966,2.775,2.775,0,0,1,1.707-.884.888.888,0,0,0,.838-.6,23.206,23.206,0,0,0,.153-2.852v-7h-1.1a6.011,6.011,0,0,1-.988-1.01,6.155,6.155,0,0,1-.549-2.961h10.443a15.958,15.958,0,0,1,2.977.259,5.636,5.636,0,0,1,2.336.984,4.755,4.755,0,0,1,1.526,2.018,8.807,8.807,0,0,1,.55,3.4V248.5Z" transform="translate(-339.681 -226.216)" fill="#2e2e2d"/>
      <path id="Path_653" data-name="Path 653" d="M191.314,288.264v-7.845a8.633,8.633,0,0,1,1.7-1.732,8.77,8.77,0,0,1,3.76-.808v10.386Z" transform="translate(-176.088 -265.937)" fill="#2e2e2d"/>
      <path id="Path_654" data-name="Path 654" d="M200.684,248.037V238.029a28.387,28.387,0,0,0-.157-3.154,1.435,1.435,0,0,0-.534-.8,2.153,2.153,0,0,0-.972-.345,11.338,11.338,0,0,0-1.444-.078h-4.112a4.97,4.97,0,0,1-1.355-.779c-.936-.912-.785-3.257-.785-3.257h7.724a18.769,18.769,0,0,1,3.075.235,6.353,6.353,0,0,1,2.432.895,4.386,4.386,0,0,1,1.585,1.835,19.985,19.985,0,0,1,.565,5.041v10.416Z" transform="translate(-176.089 -225.71)" fill="#2e2e2d"/>
      <path id="Path_655" data-name="Path 655" d="M107.851,248.037V238.029a28.385,28.385,0,0,0-.157-3.154,1.441,1.441,0,0,0-.533-.8,2.159,2.159,0,0,0-.973-.345c-.4-.052-1.451-.078-2.015-.078h-1.684a4.97,4.97,0,0,1-1.354-.779c-.935-.912-.785-3.257-.785-3.257h5.867a18.763,18.763,0,0,1,3.075.235,6.35,6.35,0,0,1,2.432.895,4.391,4.391,0,0,1,1.585,1.835,19.987,19.987,0,0,1,.564,5.041v10.416Z" transform="translate(-100.261 -225.71)" fill="#2e2e2d"/>
    </g>
  </g>
</svg>
