<svg id="Layer_1" data-name="Layer 1" xmlns="http://www.w3.org/2000/svg" viewBox="0 0 27.3 27.35"><defs><style>.cls-1{fill:#fff;}</style></defs><title>phone</title><g id="phone-call"><g id="Group_709" data-name="Group 709"><path id="Path_38952" data-name="Path 38952" class="cls-1" d="M26.58,20.08l-3.82-3.82a2.54,2.54,0,0,0-4.23,1,2.6,2.6,0,0,1-3,1.64c-2.73-.68-6.41-4.23-7.09-7.09a2.47,2.47,0,0,1,1.64-3,2.54,2.54,0,0,0,1-4.23L7.22.72a2.72,2.72,0,0,0-3.68,0L1,3.31c-2.59,2.73.27,10,6.68,16.36S21.26,29.07,24,26.35l2.59-2.59A2.72,2.72,0,0,0,26.58,20.08Z" transform="translate(0 0)"/></g></g></svg>