<svg id="right-arrow" xmlns="http://www.w3.org/2000/svg" viewBox="0 0 36.98 30.75"><defs><style>.cls-1{fill:#fff;}</style></defs><title>right-arrow-white</title><g id="Group_650" data-name="Group 650"><path id="Path_38887" data-name="Path 38887" class="cls-1" d="M36.37,13.94,23,.59a2,2,0,0,0-2.83,0l0,0L19,1.8a2,2,0,0,0-.59,1.43A2,2,0,0,0,19,4.68l7.79,7.8H2a2,2,0,0,0-2,1.95H0v1.71a2,2,0,0,0,2,2.08H26.83L19,26.1a2,2,0,0,0,0,2.83h0l1.21,1.21a2,2,0,0,0,2.83,0l0,0,13.3-13.33a2,2,0,0,0,0-2.83Z" transform="translate(0 0.01)"/></g></svg>