<svg xmlns="http://www.w3.org/2000/svg" width="82" height="82" viewBox="0 0 82 82">
  <g id="Group_705" data-name="Group 705" transform="translate(-919 -10255)">
    <g id="Path_38945" data-name="Path 38945" transform="translate(919 10255)" fill="#fff">
      <path d="M 41 81.5 C 35.53231048583984 81.5 30.22844505310059 80.42925262451172 25.23572158813477 78.31751251220703 C 20.41307830810547 76.27770233154297 16.08178901672363 73.35743713378906 12.36217784881592 69.63782501220703 C 8.642566680908203 65.918212890625 5.722300052642822 61.58692169189453 3.682488918304443 56.76427841186523 C 1.570744395256042 51.77155685424805 0.5 46.46768951416016 0.5 41 C 0.5 35.53231048583984 1.570744395256042 30.22844505310059 3.682488918304443 25.23572158813477 C 5.722300052642822 20.41307830810547 8.642566680908203 16.08178901672363 12.36217784881592 12.36217784881592 C 16.08178901672363 8.642566680908203 20.41307830810547 5.722300052642822 25.23572158813477 3.682488918304443 C 30.22844505310059 1.570744395256042 35.53231048583984 0.5 41 0.5 C 46.46768951416016 0.5 51.77155685424805 1.570744395256042 56.76427841186523 3.682488918304443 C 61.58692169189453 5.722300052642822 65.918212890625 8.642566680908203 69.63782501220703 12.36217784881592 C 73.35743713378906 16.08178901672363 76.27770233154297 20.41307830810547 78.31751251220703 25.23572158813477 C 80.42925262451172 30.22844505310059 81.5 35.53231048583984 81.5 41 C 81.5 46.46768951416016 80.42925262451172 51.77155685424805 78.31751251220703 56.76427841186523 C 76.27770233154297 61.58692169189453 73.35743713378906 65.918212890625 69.63782501220703 69.63782501220703 C 65.918212890625 73.35743713378906 61.58692169189453 76.27770233154297 56.76427841186523 78.31751251220703 C 51.77155685424805 80.42925262451172 46.46768951416016 81.5 41 81.5 Z" stroke="none"/>
      <path d="M 41 1 C 35.59959030151367 1 30.36125564575195 2.057456970214844 25.43050003051758 4.142990112304688 C 20.66744613647461 6.157585144042969 16.38957977294922 9.041877746582031 12.71572113037109 12.71572113037109 C 9.041877746582031 16.38957977294922 6.157585144042969 20.66744613647461 4.142990112304688 25.43050003051758 C 2.057456970214844 30.36125564575195 1 35.59959030151367 1 41 C 1 46.40040969848633 2.057456970214844 51.63874435424805 4.142990112304688 56.56949996948242 C 6.157585144042969 61.33255767822266 9.041877746582031 65.61042022705078 12.71572113037109 69.28427886962891 C 16.38957977294922 72.95812225341797 20.66744613647461 75.8424072265625 25.43050003051758 77.85700988769531 C 30.36125564575195 79.94254302978516 35.59959030151367 81 41 81 C 46.40040969848633 81 51.63874435424805 79.94254302978516 56.56949996948242 77.85700988769531 C 61.33255767822266 75.8424072265625 65.61042022705078 72.95812225341797 69.28427886962891 69.28427886962891 C 72.95812225341797 65.61042022705078 75.8424072265625 61.33255767822266 77.85700988769531 56.56949996948242 C 79.94254302978516 51.63874435424805 81 46.40040969848633 81 41 C 81 35.59959030151367 79.94254302978516 30.36125564575195 77.85700988769531 25.43050003051758 C 75.8424072265625 20.66744613647461 72.95812225341797 16.38957977294922 69.28427886962891 12.71572113037109 C 65.61042022705078 9.041877746582031 61.33255767822266 6.157585144042969 56.56949996948242 4.142990112304688 C 51.63874435424805 2.057456970214844 46.40040969848633 1 41 1 M 41 0 C 63.6436767578125 0 82 18.3563232421875 82 41 C 82 63.6436767578125 63.6436767578125 82 41 82 C 18.3563232421875 82 0 63.6436767578125 0 41 C 0 18.3563232421875 18.3563232421875 0 41 0 Z" stroke="none" fill="#00183e"/>
    </g>
    <g id="Group_689" data-name="Group 689" transform="translate(881.088 10194.215)">
      <path id="Path_38934" data-name="Path 38934" d="M75.215,105.3a.913.913,0,0,0,.232.936l3.947,3.839-.925,5.428a.913.913,0,0,0,1.326.961l4.87-2.566,4.876,2.557a.914.914,0,0,0,.424.1h.007a.913.913,0,0,0,.873-1.181l-.917-5.313,3.939-3.847a.913.913,0,0,0-.507-1.556l-5.449-.787-2.442-4.935a.914.914,0,0,0-.819-.507h0a.912.912,0,0,0-.818.51l-2.432,4.94-5.448.8A.911.911,0,0,0,75.215,105.3Zm6.924.318a.913.913,0,0,0,.687-.5l1.826-3.711,1.834,3.707a.912.912,0,0,0,.688.5l4.094.591-2.959,2.89a.911.911,0,0,0-.262.808l.7,4.076-3.663-1.921a.913.913,0,0,0-.849,0l-3.659,1.928.695-4.077a.913.913,0,0,0-.263-.808l-2.965-2.884Z" transform="translate(-4.967 -5.577)"/>
      <path id="Path_38935" data-name="Path 38935" d="M91.423,90.672a.913.913,0,0,0,.913-.913V86.7a.913.913,0,0,0-1.826,0v3.061A.913.913,0,0,0,91.423,90.672Z" transform="translate(-11.733)"/>
      <path id="Path_38936" data-name="Path 38936" d="M90.51,134.623v3.061a.913.913,0,1,0,1.826,0v-3.061a.913.913,0,1,0-1.826,0Z" transform="translate(-11.733 -21.141)"/>
      <path id="Path_38937" data-name="Path 38937" d="M111.406,117.948a.913.913,0,0,0,.913.913h3.061a.913.913,0,0,0,0-1.826h-3.061A.913.913,0,0,0,111.406,117.948Z" transform="translate(-20.951 -13.786)"/>
      <path id="Path_38938" data-name="Path 38938" d="M64.825,118.862h3.186a.913.913,0,0,0,0-1.826H64.825a.913.913,0,1,0,0,1.826Z" transform="translate(0 -13.786)"/>
      <path id="Path_38939" data-name="Path 38939" d="M102.779,133.978a.913.913,0,0,0,0,1.291l4.33,4.33a.913.913,0,1,0,1.291-1.291l-4.33-4.33A.913.913,0,0,0,102.779,133.978Z" transform="translate(-17.028 -21.142)"/>
      <path id="Path_38940" data-name="Path 38940" d="M75.359,133.978l-4.33,4.33a.913.913,0,0,0,1.291,1.291l4.33-4.33a.913.913,0,1,0-1.291-1.291Z" transform="translate(-3.022 -21.142)"/>
      <path id="Path_38941" data-name="Path 38941" d="M75.359,98.48a.913.913,0,1,0,1.292-1.291l-4.33-4.33A.913.913,0,0,0,71.03,94.15Z" transform="translate(-3.022 -3.003)"/>
      <path id="Path_38942" data-name="Path 38942" d="M103.423,98.748a.91.91,0,0,0,.645-.268l4.33-4.33a.913.913,0,0,0-1.291-1.291l-4.33,4.33a.913.913,0,0,0,.645,1.559Z" transform="translate(-17.027 -3.003)"/>
    </g>
  </g>
</svg>
