<svg xmlns="http://www.w3.org/2000/svg" width="372.019" height="138.622" viewBox="0 0 372.019 138.622">
  <g id="Group_36" data-name="Group 36" transform="translate(-237.534 -412.198)" opacity="0.7">
    <path id="Path_240" data-name="Path 240" d="M274.628,542.114l3.907-30.418H273l-3.256,25.4h-13.5l-1.338-13.042h-5.1l1.484,18.063Z" fill="#fff"/>
    <path id="Path_241" data-name="Path 241" d="M274.628,542.114l3.907-30.418H273l-3.256,25.4h-13.5l-1.338-13.042h-5.1l1.484,18.063Z" fill="none" stroke="#fff" stroke-width="1.108"/>
    <path id="Path_242" data-name="Path 242" d="M261.861,530.662h5.065L265.515,511.7H242.108l-3.944,30.418h5.572l3.256-25.36H260.45Z" fill="#fff"/>
    <path id="Path_243" data-name="Path 243" d="M261.861,530.662h5.065L265.515,511.7H242.108l-3.944,30.418h5.572l3.256-25.36H260.45Z" fill="none" stroke="#fff" stroke-width="1.108"/>
    <path id="Path_244" data-name="Path 244" d="M325.06,520.69v-7.28c0-8.065-2.689-13.777-9.409-15.9v-.224c6.161-2.017,9.185-7.505,9.185-15.9v-3.137c0-12.1-5.937-19.041-17.361-19.041C295.6,459.2,290,466.367,290,478.351v3.921h8.289v-4.593c0-6.832,2.688-10.528,8.849-10.528,5.712,0,8.96,3.7,8.96,10.864v5.153c0,7.168-3.584,10.64-9.408,10.64h-4.929v7.953h4.705c6.608,0,9.856,3.584,9.856,11.649v6.832c0,7.953-2.912,11.649-9.184,11.649-6.5,0-9.3-4.145-9.3-10.865v-6.272h-8.289v5.936c0,11.537,5.489,19.153,17.81,19.153,12.1,0,17.7-7.168,17.7-19.153m8.4,30.13,5.489-12.993V527.411H330.1v11.312h3.136l-3.808,12.1Zm36.29-29.794c0,7.505-3.36,10.865-9.3,10.865-5.825,0-9.185-3.36-9.185-10.865V477.9c0-7.392,3.36-10.752,9.185-10.752,5.936,0,9.3,3.36,9.3,10.752Zm8.737-.56v-42c0-12.432-6.384-19.265-18.033-19.265-11.537,0-17.921,6.833-17.921,19.265v42c0,12.433,6.384,19.377,17.921,19.377,11.649,0,18.033-6.944,18.033-19.377m33.825.56c0,7.505-3.36,10.865-9.3,10.865-5.824,0-9.185-3.36-9.185-10.865V477.9c0-7.392,3.361-10.752,9.185-10.752,5.936,0,9.3,3.36,9.3,10.752Zm8.737-.56v-42c0-12.432-6.385-19.265-18.033-19.265-11.537,0-17.921,6.833-17.921,19.265v42c0,12.433,6.384,19.377,17.921,19.377,11.648,0,18.033-6.944,18.033-19.377m36.065.56c0,7.505-3.36,10.865-9.3,10.865-5.824,0-9.185-3.36-9.185-10.865V477.9c0-7.392,3.361-10.752,9.185-10.752,5.936,0,9.3,3.36,9.3,10.752Zm8.737-.56v-42c0-12.432-6.384-19.265-18.033-19.265-11.537,0-17.921,6.833-17.921,19.265v42c0,12.433,6.384,19.377,17.921,19.377,11.649,0,18.033-6.944,18.033-19.377m9.072,30.354,5.488-12.993V527.411h-8.848v11.312H474.7l-3.808,12.1Zm38.53-29.794c0,7.505-3.36,10.865-9.3,10.865-5.825,0-9.185-3.36-9.185-10.865V477.9c0-7.392,3.36-10.752,9.185-10.752,5.936,0,9.3,3.36,9.3,10.752Zm8.737-.56v-42c0-12.432-6.385-19.265-18.033-19.265-11.537,0-17.921,6.833-17.921,19.265v42c0,12.433,6.384,19.377,17.921,19.377,11.648,0,18.033-6.944,18.033-19.377m44.8-31.535V478.463c0-12.432-6.385-19.265-18.033-19.265-11.537,0-17.921,6.833-17.921,19.265v42c0,12.433,6.384,19.377,17.921,19.377,11.648,0,18.033-6.944,18.033-19.377V508.738h-8.737v12.288c0,7.505-3.36,10.865-9.3,10.865-5.825,0-9.185-3.36-9.185-10.865V477.9c0-7.392,3.36-10.752,9.185-10.752,5.936,0,9.3,3.36,9.3,10.752v11.028Zm42.562,31.535v-42c0-12.432-6.385-19.265-18.033-19.265-11.537,0-17.921,6.833-17.921,19.265v10.468h8.736V477.9c0-7.392,3.36-10.752,9.185-10.752,5.936,0,9.3,3.36,9.3,10.752v43.123c0,7.505-3.36,10.865-9.3,10.865-5.825,0-9.185-3.36-9.185-10.865V508.738H573.6v11.728c0,12.433,6.384,19.377,17.921,19.377,11.648,0,18.033-6.944,18.033-19.377" fill="#fff"/>
    <path id="Path_245" data-name="Path 245" d="M551.558,500.174h-5.29v-1.348h5.29Zm9.424,4.556H556.03l.385-1.675H559.4v-7.089h-1.7a1.846,1.846,0,0,0-1.936,1.614l-1.682,7.15h-1.532l1.127-4.954a3.917,3.917,0,0,0-.056-2.268l-.423-1.542h-1.268l.347-1.737h2.077l.573,2.278h.122l.076-.225a2.777,2.777,0,0,1,2.885-2.053h2.969Zm12.191-10.5-1.212,6.824q-.648,3.676-3.346,3.677h-1.654l.442-1.675h1.137q1.457,0,1.8-2l.883-5.087h-5.366V490.92h1.579v3.309Zm9.285,10.5h-1.579v-8.764h-4.06v8.764h-1.578v-8.764h-1.175l.329-1.737h8.063Zm9.228,0h-1.56v-8.764H584.1l.329-1.737h7.255Zm-5.432,0h-1.56v-6.19h1.56Z" fill="#fff"/>
    <path id="Path_246" data-name="Path 246" d="M475.992,430.465a12.5,12.5,0,0,1-.984,4.193,16.964,16.964,0,0,1-2.006,4.03h-1.349a37.133,37.133,0,0,0,1.313-8.223Zm16.719,2.99-.821,3.1h-2.315V452.2h-3.063V436.554h-9.445v-3.1ZM510.945,452.2h-3.063V436.554h-7.876V452.2h-3.063V436.554h-2.279l.638-3.1h15.643Z" fill="#fff"/>
    <text id="_5" data-name="5" transform="translate(518.37 452.198)" fill="#fff" font-size="37.339" font-family="SegoeUI, Segoe UI"><tspan x="0" y="0">5</tspan></text>
    <path id="Path_247" data-name="Path 247" d="M557.511,452.2h-3.063V436.554h-7.293v10.484a5.726,5.726,0,0,1-.893,3.263,4.307,4.307,0,0,1-3.884,1.9h-2.5l.711-2.954h1.459q2.079,0,2.078-2.206V436.554h-3.245l.748-3.1h15.88Zm8.177,0h-3.045V436.554h-2.771l.711-3.1h5.1Zm15.014,0h-3.026V436.554h-9.627l.638-3.1H580.7Zm7.818-8.132h-3.063v-7.512h-2.808l.748-3.1h5.123Zm18.388-10.611-.82,3.1h-2.316V452.2h-3.063V436.554h-9.444v-3.1Z" fill="#fff"/>
  </g>
</svg>
