<svg id="Layer_1" data-name="Layer 1" xmlns="http://www.w3.org/2000/svg" viewBox="0 0 1819.62 383.71"><defs><style>.cls-1{fill:#00183e;opacity:0.03;isolation:isolate;}</style></defs><title>project-luxury</title><path id="Path_239" data-name="Path 239" class="cls-1" d="M1643.29,55.39h25.44c18.07,0,37.29,1.12,54.24,10.73,23.73,13.56,29.95,34.48,29.95,55.38,0,44.08-31.07,69-83.07,69h-26.56Zm-41.8-39.56V392.75h41.8v-165H1654l114.72,165h50.87l-119.82-168.4c57.09-3.95,94.94-46.34,94.94-104,0-40.14-19.22-68.95-41.24-83.66-28.27-19.19-66.12-20.9-91.55-20.9Zm-419.31,0h-41.8V258.25c0,31.66,3.39,62.17,23.73,90.43,22.61,31.07,62.15,50.85,110.19,50.85s87.58-19.78,110.19-50.85c20.34-28.27,23.73-58.78,23.73-90.43V15.83h-41.8V247c0,31.64,0,66.12-29.95,91.53-15.27,13-41.26,21.49-62.17,21.49s-46.9-8.49-62.17-21.49c-29.95-25.41-29.95-59.9-29.95-91.53ZM718.79,392.75h47.48l87.58-154.84,86.46,154.84h47.48l-109.07-195,103.41-182H934.68L854.41,157.67l-78-141.84H729l101.16,182ZM340.18,15.83h-41.8V258.25c0,31.66,3.39,62.17,23.73,90.43,22.61,31.07,62.17,50.85,110.19,50.85s87.6-19.78,110.19-50.85c20.36-28.27,23.75-58.78,23.75-90.43V15.83H524.41V247c0,31.64,0,66.12-29.95,91.53-15.27,13-41.27,21.49-62.17,21.49s-46.9-8.49-62.17-21.49c-30-25.41-30-59.9-30-91.53ZM0,15.83V392.75H145.8V353.2h-104V15.83Z" transform="translate(0 -15.83)"/></svg>